<svg version="1.1" id="Layer_1" xmlns="http://www.w3.org/2000/svg" xmlns:xlink="http://www.w3.org/1999/xlink" x="0px" y="0px"
	 width="100%" viewBox="0 0 225 225" enable-background="new 0 0 225 225" xml:space="preserve">
<path fill="#FFFFFF" opacity="1.000000" stroke="none" 
	d="
M149.000000,226.000000 
	C99.333336,226.000000 50.166672,226.000000 1.000007,226.000000 
	C1.000004,151.000000 1.000004,76.000015 1.000002,1.000017 
	C75.999992,1.000011 150.999985,1.000011 225.999969,1.000006 
	C225.999985,75.999985 225.999985,150.999969 226.000000,225.999969 
	C200.500000,226.000000 175.000000,226.000000 149.000000,226.000000 
M112.255104,188.628937 
	C119.536507,194.649109 128.177750,197.061890 137.336273,198.225464 
	C153.870667,200.326080 169.730988,199.119888 183.615189,188.664871 
	C197.226120,178.415588 200.174881,157.766220 187.383820,145.759430 
	C181.102386,139.863129 174.380371,135.171478 166.044662,132.194443 
	C169.613281,120.685753 173.181915,109.177063 176.824478,97.429939 
	C172.214066,95.631851 167.590195,93.828514 163.820984,92.010826 
	C168.887741,92.673485 173.952621,93.351044 179.022003,93.992989 
	C181.881088,94.355042 183.599136,93.401070 184.516830,90.345444 
	C184.935455,88.951614 186.910065,87.806908 188.423813,87.020599 
	C189.985611,86.209328 191.844910,85.970795 194.374588,85.255241 
	C192.259125,67.169205 190.151627,49.151375 188.065918,31.319752 
	C179.666641,31.936934 172.419830,33.025558 165.196533,32.887196 
	C148.963501,32.576244 132.740814,31.685822 116.516693,30.968563 
	C110.897438,30.720139 105.289696,30.215670 99.670906,29.951138 
	C85.111191,29.265669 70.550690,28.561598 55.982407,28.154604 
	C54.692162,28.118559 52.264294,30.149342 52.212662,31.302900 
	C52.017090,35.671825 49.970863,36.997829 45.902584,37.155624 
	C43.701828,37.240982 40.304634,37.474056 41.096786,41.248386 
	C43.255657,51.534695 45.642151,61.773224 47.720127,72.748878 
	C44.476601,84.541077 41.318504,96.357796 37.945328,108.112801 
	C36.687504,112.496117 35.347149,116.952202 33.268902,120.974403 
	C31.468803,124.458275 31.920589,127.053818 35.516567,127.992851 
	C41.665058,129.598434 47.840782,131.148331 53.885632,133.092896 
	C70.961990,138.586182 87.977745,144.267868 104.444992,150.287064 
	C99.576805,156.205139 98.927277,162.797073 100.823372,170.049103 
	C102.703766,177.241089 105.771736,183.543716 112.255104,188.628937 
z"/>
<path fill="#FBE5BE" opacity="1.000000" stroke="none" 
	d="
M47.938461,72.030685 
	C45.642151,61.773224 43.255657,51.534695 41.096786,41.248386 
	C40.304634,37.474056 43.701828,37.240982 45.902584,37.155624 
	C49.970863,36.997829 52.017090,35.671825 52.212662,31.302900 
	C52.264294,30.149342 54.692162,28.118559 55.982407,28.154604 
	C70.550690,28.561598 85.111191,29.265669 99.670906,29.951138 
	C105.289696,30.215670 110.897438,30.720139 116.516693,30.968563 
	C132.740814,31.685822 148.963501,32.576244 165.196533,32.887196 
	C172.419830,33.025558 179.666641,31.936934 188.065918,31.319752 
	C190.151627,49.151375 192.259125,67.169205 194.374588,85.255241 
	C191.844910,85.970795 189.985611,86.209328 188.423813,87.020599 
	C186.910065,87.806908 184.935455,88.951614 184.516830,90.345444 
	C183.599136,93.401070 181.881088,94.355042 179.022003,93.992989 
	C173.952621,93.351044 168.887741,92.673485 162.994064,92.001968 
	C159.919937,91.464096 157.627335,91.078651 155.432404,90.384354 
	C126.127274,81.114479 96.838409,71.793167 67.538399,62.507057 
	C62.530811,60.919987 57.490070,59.437500 52.166637,57.815926 
	C50.656208,62.893852 49.297333,67.462265 47.938461,72.030685 
z"/>
<path fill="#EF7A62" opacity="1.000000" stroke="none" 
	d="
M47.829292,72.389786 
	C49.297333,67.462265 50.656208,62.893852 52.166637,57.815926 
	C57.490070,59.437500 62.530811,60.919987 67.538399,62.507057 
	C96.838409,71.793167 126.127274,81.114479 155.432404,90.384354 
	C157.627335,91.078651 159.919937,91.464096 162.566742,92.009148 
	C167.590195,93.828514 172.214066,95.631851 176.824478,97.429939 
	C173.181915,109.177063 169.613281,120.685753 165.775604,132.768463 
	C165.112793,134.538971 164.719070,135.735474 164.198563,137.319946 
	C161.165756,146.474442 158.259735,155.240997 155.313339,164.129318 
	C151.829681,163.209915 149.165436,162.565048 146.535217,161.802673 
	C134.027802,158.177322 121.529648,154.520004 108.836395,150.555328 
	C107.435524,150.116150 106.226456,149.995728 105.017380,149.875320 
	C87.977745,144.267868 70.961990,138.586182 53.885632,133.092896 
	C47.840782,131.148331 41.665058,129.598434 35.516567,127.992851 
	C31.920589,127.053818 31.468803,124.458275 33.268902,120.974403 
	C35.347149,116.952202 36.687504,112.496117 37.945328,108.112801 
	C41.318504,96.357796 44.476601,84.541077 47.829292,72.389786 
M161.556900,135.601425 
	C161.640427,134.411911 161.723969,133.222412 162.115601,131.334152 
	C165.569305,120.853188 169.022995,110.372223 172.728271,99.127838 
	C160.419327,95.503929 148.859573,92.100586 136.721954,88.236954 
	C109.917381,79.538277 83.112801,70.839607 55.646717,61.926262 
	C53.844677,68.936691 51.914944,76.443901 49.330574,84.325203 
	C45.611164,96.650192 41.891754,108.975174 38.182060,121.267960 
	C61.971237,129.229462 85.468170,137.093155 109.438118,145.502213 
	C111.296478,145.946274 113.154839,146.390335 115.678558,147.181900 
	C127.554970,151.518143 139.431381,155.854385 151.970520,160.432602 
	C155.111969,151.932892 158.044540,143.998306 161.556900,135.601425 
z"/>
<path fill="#A2CFFC" opacity="1.000000" stroke="none" 
	d="
M164.325333,136.931976 
	C164.719070,135.735474 165.112793,134.538971 165.766876,133.150269 
	C174.380371,135.171478 181.102386,139.863129 187.383820,145.759430 
	C200.174881,157.766220 197.226120,178.415588 183.615189,188.664871 
	C169.730988,199.119888 153.870667,200.326080 137.336273,198.225464 
	C128.177750,197.061890 119.536507,194.649109 112.436127,188.288177 
	C113.413185,186.959045 114.209213,185.970688 115.356613,185.024475 
	C135.285904,198.594925 155.897293,198.138489 176.333893,188.105286 
	C192.321228,180.256409 198.028061,159.921051 182.757553,147.348511 
	C179.726852,144.853287 176.124222,143.021378 172.679504,141.070419 
	C169.979553,139.541260 167.116135,138.300735 164.325333,136.931976 
z"/>
<path fill="#9DCCFB" opacity="1.000000" stroke="none" 
	d="
M115.005249,184.982330 
	C114.209213,185.970688 113.413185,186.959045 112.267662,187.987869 
	C105.771736,183.543716 102.703766,177.241089 100.823372,170.049103 
	C98.927277,162.797073 99.576805,156.205139 104.731186,150.081192 
	C106.226456,149.995728 107.435524,150.116150 108.554214,150.753967 
	C106.711388,155.104782 104.546562,158.817673 103.376228,162.821259 
	C102.768623,164.899796 103.256073,167.897202 104.402405,169.775467 
	C107.615669,175.040359 111.428787,179.939117 115.005249,184.982330 
z"/>
<path fill="#FFFFFF" opacity="1.000000" stroke="none" 
	d="
M108.965103,144.956863 
	C85.468170,137.093155 61.971237,129.229462 38.182060,121.267960 
	C41.891754,108.975174 45.611164,96.650192 49.669495,84.537239 
	C51.675720,91.349388 52.668209,91.667007 60.264004,91.015640 
	C74.369812,89.806007 88.495720,88.585304 102.637909,88.122116 
	C114.173233,87.744324 125.744492,88.464119 137.299820,88.697250 
	C148.859573,92.100586 160.419327,95.503929 172.728271,99.127838 
	C169.022995,110.372223 165.569305,120.853188 161.529572,131.680145 
	C159.134155,131.931870 157.304321,131.978592 155.518707,131.719986 
	C145.308105,130.241287 134.918030,129.948349 125.354477,133.677979 
	C119.339897,136.023560 114.391701,141.103577 108.965103,144.956863 
z"/>
<path fill="#FFFFFF" opacity="1.000000" stroke="none" 
	d="
M115.356621,185.024475 
	C111.428787,179.939117 107.615669,175.040359 104.402405,169.775467 
	C103.256073,167.897202 102.768623,164.899796 103.376228,162.821259 
	C104.546562,158.817673 106.711388,155.104782 108.746010,151.072723 
	C121.529648,154.520004 134.027802,158.177322 146.535217,161.802673 
	C149.165436,162.565048 151.829681,163.209915 155.313339,164.129318 
	C158.259735,155.240997 161.165756,146.474442 164.198563,137.319946 
	C167.116135,138.300735 169.979553,139.541260 172.679504,141.070419 
	C176.124222,143.021378 179.726852,144.853287 182.757553,147.348511 
	C198.028061,159.921051 192.321228,180.256409 176.333893,188.105286 
	C155.897293,198.138489 135.285904,198.594925 115.356621,185.024475 
z"/>
<path fill="#FBE4BD" opacity="1.000000" stroke="none" 
	d="
M137.010895,88.467102 
	C125.744492,88.464119 114.173233,87.744324 102.637909,88.122116 
	C88.495720,88.585304 74.369812,89.806007 60.264004,91.015640 
	C52.668209,91.667007 51.675720,91.349388 49.996811,84.350189 
	C51.914944,76.443901 53.844677,68.936691 55.646717,61.926262 
	C83.112801,70.839607 109.917381,79.538277 137.010895,88.467102 
z"/>
<path fill="#FFFFFF" opacity="1.000000" stroke="none" 
	d="
M160.977127,136.063721 
	C158.044540,143.998306 155.111969,151.932892 151.970520,160.432602 
	C139.431381,155.854385 127.554970,151.518143 115.552185,146.741592 
	C129.535599,138.110138 144.726273,134.728348 160.977127,136.063721 
z"/>
<path fill="#A2CFFC" opacity="1.000000" stroke="none" 
	d="
M161.267014,135.832581 
	C144.726273,134.728348 129.535599,138.110138 115.219505,146.567841 
	C113.154839,146.390335 111.296478,145.946274 109.201614,145.229538 
	C114.391701,141.103577 119.339897,136.023560 125.354477,133.677979 
	C134.918030,129.948349 145.308105,130.241287 155.518707,131.719986 
	C157.304321,131.978592 159.134155,131.931870 161.375534,132.029526 
	C161.723969,133.222412 161.640427,134.411911 161.267014,135.832581 
z"/>
</svg>