<svg version="1.1" id="Layer_1" xmlns="http://www.w3.org/2000/svg" xmlns:xlink="http://www.w3.org/1999/xlink" x="0px" y="0px"
	 width="100%" viewBox="0 0 794 794" enable-background="new 0 0 794 794" xml:space="preserve">
<path fill="#FFFFFF" opacity="1.000000" stroke="none" 
	d="
M452.000000,795.000000 
	C301.333344,795.000000 151.166672,795.000000 1.000000,795.000000 
	C1.000000,530.333313 1.000000,265.666656 1.000000,1.000000 
	C265.666656,1.000000 530.333313,1.000000 795.000000,1.000000 
	C795.000000,265.666656 795.000000,530.333313 795.000000,795.000000 
	C680.833313,795.000000 566.666687,795.000000 452.000000,795.000000 
M270.000000,418.000000 
	C270.000000,418.000000 269.989868,418.006378 270.053894,418.709229 
	C273.700684,423.143219 277.347473,427.577240 281.284912,432.603455 
	C283.519562,434.737518 285.754211,436.871582 288.262207,439.614532 
	C294.833557,445.354919 301.404907,451.095337 307.058228,456.966156 
	C303.393188,457.003632 299.708679,456.810822 296.066589,457.119232 
	C281.805573,458.326904 267.565918,459.789459 253.302689,460.967407 
	C243.105774,461.809540 232.874481,462.234131 222.676773,463.068024 
	C216.940277,463.537170 211.240814,464.458954 205.524902,465.176819 
	C206.746323,474.486206 207.889313,483.109436 209.006302,491.736023 
	C210.123169,500.361725 211.188965,508.994049 212.323090,517.617432 
	C213.520370,526.721130 214.838867,535.809326 215.981018,544.919739 
	C217.125183,554.046204 218.037186,563.201904 219.195236,572.326477 
	C220.722961,584.363953 222.499374,596.370422 223.965378,608.414978 
	C225.157684,618.210876 226.013290,628.047363 227.085709,637.858459 
	C228.352859,649.450928 229.724533,661.032104 230.988037,672.625000 
	C231.681808,678.990540 233.001892,685.425537 232.541138,691.719543 
	C232.320206,694.737488 234.867294,700.786865 227.861938,701.290039 
	C227.486389,701.317017 226.554733,704.639282 227.160400,705.374756 
	C229.753342,708.523682 232.589325,711.581299 235.797272,714.081055 
	C238.431259,716.133667 241.601059,716.734985 244.933212,714.612732 
	C246.921326,713.346436 249.336868,712.359680 251.660980,712.077881 
	C264.057373,710.574951 276.463501,709.051147 288.908813,708.080322 
	C301.922729,707.065063 314.988556,706.731262 328.024872,705.981628 
	C337.742706,705.422729 347.453705,704.729309 357.160645,704.000977 
	C374.420563,702.705933 391.677765,701.372742 408.930908,699.990662 
	C420.581116,699.057312 432.222595,698.015076 443.867584,697.017212 
	C459.453827,695.681702 475.043823,694.388062 490.624512,692.990540 
	C504.725586,691.725830 518.815857,690.340515 532.911804,689.018127 
	C550.773438,687.342346 568.640930,685.726624 586.496582,683.989563 
	C599.265869,682.747314 612.019348,681.343323 624.780762,680.020081 
	C640.971436,678.341125 657.224915,677.106995 673.329346,674.821777 
	C682.020813,673.588379 683.460266,675.642822 682.975708,664.637146 
	C682.415710,651.919128 681.623047,639.211487 681.023560,626.495056 
	C680.602539,617.564453 680.378601,608.624634 679.984863,599.692566 
	C679.722839,593.748474 679.399292,587.804565 678.959045,581.871338 
	C677.678162,564.607605 676.333374,547.348572 674.996155,530.089111 
	C674.333801,521.539978 673.754089,512.982117 672.923950,504.448944 
	C671.364014,488.414062 669.880249,472.365417 667.883179,456.382660 
	C667.106812,450.169678 664.908508,444.143829 663.643311,437.974243 
	C663.398438,436.780243 664.254456,435.169067 665.004883,434.010956 
	C665.938171,432.570892 667.289307,431.401611 668.459961,430.115356 
	C668.168152,429.642059 667.876343,429.168762 667.584473,428.695435 
	C663.525330,429.128571 659.474854,429.685852 655.405334,429.972626 
	C640.421570,431.028473 625.430176,431.975128 610.444214,433.000488 
	C596.970276,433.922424 583.499634,434.893768 570.339233,435.197083 
	C572.480042,427.237518 575.045410,419.363098 576.662109,411.298492 
	C579.078247,399.245758 578.732910,387.164368 573.361572,375.846191 
	C567.113220,362.680115 560.776123,349.527161 553.764343,336.760193 
	C546.292053,323.154724 536.776489,311.079651 523.709717,302.193817 
	C518.404785,298.586304 513.230713,294.786407 508.911346,291.025726 
	C515.194580,291.392334 521.498901,291.547668 527.756531,292.171631 
	C539.087952,293.301453 550.398926,294.649994 561.704651,296.020355 
	C573.010681,297.390717 584.281616,299.065308 595.600769,300.307434 
	C611.196045,302.018799 626.799927,303.760834 642.443787,304.876495 
	C651.051270,305.490356 653.192810,303.006134 654.014587,294.430420 
	C655.140991,282.676361 657.859131,280.312561 669.560974,279.918518 
	C673.812439,279.775330 678.059021,278.837830 682.259644,278.016846 
	C686.434448,277.200836 688.491394,274.721741 688.039124,270.198273 
	C687.233276,262.140198 686.743103,254.051010 685.981689,245.987991 
	C685.002991,235.624832 683.975769,225.264618 682.807739,214.921387 
	C681.289246,201.474808 679.552734,188.052902 678.019775,174.607864 
	C676.560303,161.806946 675.381592,148.972946 673.824890,136.184479 
	C672.030640,121.444496 669.743774,106.761589 668.147339,92.002357 
	C667.719971,88.051567 666.527039,86.676445 662.737305,86.975456 
	C653.004883,87.743340 643.260620,88.359711 633.524963,89.088379 
	C616.373840,90.372040 599.239441,92.518875 582.072998,92.805489 
	C556.804321,93.227371 531.505493,92.620392 506.235535,91.893707 
	C491.027893,91.456383 475.833771,90.160927 460.664276,88.885902 
	C443.879364,87.475082 427.143646,85.480629 410.360016,84.051971 
	C395.854401,82.817207 381.318634,81.898323 366.783600,81.057686 
	C347.265411,79.928841 327.736450,78.981918 308.209503,78.009613 
	C293.974121,77.300774 279.740662,76.434006 265.495331,76.071999 
	C243.719147,75.518600 221.933868,75.304810 200.151398,75.030518 
	C195.613449,74.973373 191.752670,76.869820 190.456604,81.359344 
	C189.380768,85.086021 189.488174,89.146835 188.990479,93.049309 
	C187.704971,103.128799 188.331802,104.232735 177.221146,106.027473 
	C171.194885,107.000916 165.171783,107.995209 159.154160,109.020653 
	C151.589386,110.309746 149.840240,113.274261 151.402527,120.850792 
	C157.338852,149.640076 163.020035,178.482254 169.020111,207.258041 
	C174.886658,235.393463 181.029984,263.471130 187.039551,291.576782 
	C187.742981,294.866547 189.608414,296.368805 193.059708,296.026062 
	C197.502228,295.584900 201.968994,295.392822 206.415771,294.988647 
	C217.607758,293.971375 228.791382,292.861755 239.984055,291.852325 
	C250.676422,290.887970 261.375977,290.003265 271.767914,289.669708 
	C269.509644,292.441986 267.251373,295.214264 264.370087,298.284821 
	C255.129211,311.704681 252.406387,327.285126 251.265930,342.869171 
	C250.160721,357.971619 249.891251,373.319519 254.972321,388.103333 
	C258.241058,397.613983 261.288391,407.182800 268.000000,415.000000 
	C268.000000,415.000000 267.989044,415.006622 268.038849,415.652039 
	C268.690369,416.437622 269.341858,417.223236 270.000000,418.000000 
z"/>
<path fill="#FBE5BE" opacity="1.000000" stroke="none" 
	d="
M272.072357,289.083588 
	C261.375977,290.003265 250.676422,290.887970 239.984055,291.852325 
	C228.791382,292.861755 217.607758,293.971375 206.415771,294.988647 
	C201.968994,295.392822 197.502228,295.584900 193.059708,296.026062 
	C189.608414,296.368805 187.742981,294.866547 187.039551,291.576782 
	C181.029984,263.471130 174.886658,235.393463 169.020111,207.258041 
	C163.020035,178.482254 157.338852,149.640076 151.402527,120.850792 
	C149.840240,113.274261 151.589386,110.309746 159.154160,109.020653 
	C165.171783,107.995209 171.194885,107.000916 177.221146,106.027473 
	C188.331802,104.232735 187.704971,103.128799 188.990479,93.049309 
	C189.488174,89.146835 189.380768,85.086021 190.456604,81.359344 
	C191.752670,76.869820 195.613449,74.973373 200.151398,75.030518 
	C221.933868,75.304810 243.719147,75.518600 265.495331,76.071999 
	C279.740662,76.434006 293.974121,77.300774 308.209503,78.009613 
	C327.736450,78.981918 347.265411,79.928841 366.783600,81.057686 
	C381.318634,81.898323 395.854401,82.817207 410.360016,84.051971 
	C427.143646,85.480629 443.879364,87.475082 460.664276,88.885902 
	C475.833771,90.160927 491.027893,91.456383 506.235535,91.893707 
	C531.505493,92.620392 556.804321,93.227371 582.072998,92.805489 
	C599.239441,92.518875 616.373840,90.372040 633.524963,89.088379 
	C643.260620,88.359711 653.004883,87.743340 662.737305,86.975456 
	C666.527039,86.676445 667.719971,88.051567 668.147339,92.002357 
	C669.743774,106.761589 672.030640,121.444496 673.824890,136.184479 
	C675.381592,148.972946 676.560303,161.806946 678.019775,174.607864 
	C679.552734,188.052902 681.289246,201.474808 682.807739,214.921387 
	C683.975769,225.264618 685.002991,235.624832 685.981689,245.987991 
	C686.743103,254.051010 687.233276,262.140198 688.039124,270.198273 
	C688.491394,274.721741 686.434448,277.200836 682.259644,278.016846 
	C678.059021,278.837830 673.812439,279.775330 669.560974,279.918518 
	C657.859131,280.312561 655.140991,282.676361 654.014587,294.430420 
	C653.192810,303.006134 651.051270,305.490356 642.443787,304.876495 
	C626.799927,303.760834 611.196045,302.018799 595.600769,300.307434 
	C584.281616,299.065308 573.010681,297.390717 561.704651,296.020355 
	C550.398926,294.649994 539.087952,293.301453 527.756531,292.171631 
	C521.498901,291.547668 515.194580,291.392334 508.086945,290.993103 
	C505.835083,290.685852 504.407654,290.411224 502.530518,290.077911 
	C495.746826,289.723541 489.412781,289.427856 482.647339,289.085388 
	C480.497406,289.049225 478.778839,289.059814 476.611572,289.047791 
	C465.439545,288.351990 454.723877,287.492493 443.991028,287.053345 
	C430.900421,286.517639 417.793732,286.002289 404.696808,286.064362 
	C369.802551,286.229736 334.909760,286.709412 299.608276,287.028198 
	C298.107605,287.040955 297.015015,287.089661 295.500061,287.097504 
	C291.393829,287.425018 287.709961,287.793396 283.680786,288.106934 
	C282.870636,288.076996 282.405762,288.101898 281.510498,288.083832 
	C278.077545,288.388428 275.074951,288.735992 272.072357,289.083588 
z"/>
<path fill="#EF7860" opacity="1.000000" stroke="none" 
	d="
M570.027588,435.843292 
	C583.499634,434.893768 596.970276,433.922424 610.444214,433.000488 
	C625.430176,431.975128 640.421570,431.028473 655.405334,429.972626 
	C659.474854,429.685852 663.525330,429.128571 667.584473,428.695435 
	C667.876343,429.168762 668.168152,429.642059 668.459961,430.115356 
	C667.289307,431.401611 665.938171,432.570892 665.004883,434.010956 
	C664.254456,435.169067 663.398438,436.780243 663.643311,437.974243 
	C664.908508,444.143829 667.106812,450.169678 667.883179,456.382660 
	C669.880249,472.365417 671.364014,488.414062 672.923950,504.448944 
	C673.754089,512.982117 674.333801,521.539978 674.996155,530.089111 
	C676.333374,547.348572 677.678162,564.607605 678.959045,581.871338 
	C679.399292,587.804565 679.722839,593.748474 679.984863,599.692566 
	C680.378601,608.624634 680.602539,617.564453 681.023560,626.495056 
	C681.623047,639.211487 682.415710,651.919128 682.975708,664.637146 
	C683.460266,675.642822 682.020813,673.588379 673.329346,674.821777 
	C657.224915,677.106995 640.971436,678.341125 624.780762,680.020081 
	C612.019348,681.343323 599.265869,682.747314 586.496582,683.989563 
	C568.640930,685.726624 550.773438,687.342346 532.911804,689.018127 
	C518.815857,690.340515 504.725586,691.725830 490.624512,692.990540 
	C475.043823,694.388062 459.453827,695.681702 443.867584,697.017212 
	C432.222595,698.015076 420.581116,699.057312 408.930908,699.990662 
	C391.677765,701.372742 374.420563,702.705933 357.160645,704.000977 
	C347.453705,704.729309 337.742706,705.422729 328.024872,705.981628 
	C314.988556,706.731262 301.922729,707.065063 288.908813,708.080322 
	C276.463501,709.051147 264.057373,710.574951 251.660980,712.077881 
	C249.336868,712.359680 246.921326,713.346436 244.933212,714.612732 
	C241.601059,716.734985 238.431259,716.133667 235.797272,714.081055 
	C232.589325,711.581299 229.753342,708.523682 227.160400,705.374756 
	C226.554733,704.639282 227.486389,701.317017 227.861938,701.290039 
	C234.867294,700.786865 232.320206,694.737488 232.541138,691.719543 
	C233.001892,685.425537 231.681808,678.990540 230.988037,672.625000 
	C229.724533,661.032104 228.352859,649.450928 227.085709,637.858459 
	C226.013290,628.047363 225.157684,618.210876 223.965378,608.414978 
	C222.499374,596.370422 220.722961,584.363953 219.195236,572.326477 
	C218.037186,563.201904 217.125183,554.046204 215.981018,544.919739 
	C214.838867,535.809326 213.520370,526.721130 212.323090,517.617432 
	C211.188965,508.994049 210.123169,500.361725 209.006302,491.736023 
	C207.889313,483.109436 206.746323,474.486206 205.524902,465.176819 
	C211.240814,464.458954 216.940277,463.537170 222.676773,463.068024 
	C232.874481,462.234131 243.105774,461.809540 253.302689,460.967407 
	C267.565918,459.789459 281.805573,458.326904 296.066589,457.119232 
	C299.708679,456.810822 303.393188,457.003632 307.892395,456.964081 
	C309.484863,456.919464 310.243164,456.876923 311.440002,456.898376 
	C315.609161,456.321198 319.339783,455.680084 323.463867,455.023499 
	C324.906311,454.963776 325.955292,454.919525 327.440979,454.940796 
	C330.310425,454.673615 332.733917,454.229919 335.177429,454.026306 
	C351.593445,452.658386 368.012939,451.331421 384.432892,450.011261 
	C397.074707,448.994781 409.719635,448.017151 422.361786,447.004608 
	C434.676025,446.018341 446.987732,445.000458 459.301880,444.013184 
	C476.058075,442.669800 492.809631,441.261932 509.574158,440.031250 
	C525.376587,438.871246 541.193237,437.904938 557.415527,436.926575 
	C559.217285,436.944946 560.607056,436.890167 562.410339,436.899048 
	C564.214600,436.919769 565.605469,436.876831 567.319336,436.794434 
	C568.437500,436.451141 569.232544,436.147217 570.027588,435.843292 
M559.098633,447.973083 
	C556.387695,448.275116 553.676758,448.577179 550.302185,448.980377 
	C549.859985,449.041443 549.417786,449.102539 548.116577,449.034454 
	C539.479492,450.015930 530.852295,451.096893 522.203247,451.957916 
	C504.705383,453.699890 487.201599,455.388092 469.689056,456.975006 
	C453.956604,458.400604 438.211365,459.687744 422.467590,460.985504 
	C409.836121,462.026733 397.204956,463.085785 384.561676,463.964935 
	C372.371643,464.812622 360.166290,465.440002 347.115723,466.041656 
	C341.427673,466.415833 335.739655,466.790039 329.349609,467.256165 
	C328.231628,467.543182 327.113678,467.830170 325.082947,467.987915 
	C307.763214,468.986053 290.453583,470.262573 273.120453,470.890289 
	C260.306702,471.354279 247.461563,471.048126 234.632217,470.913361 
	C231.603195,470.881500 228.581436,470.159485 224.903061,469.667603 
	C225.323120,477.266663 225.556656,483.996948 226.093903,490.702911 
	C227.316849,505.967438 228.752930,521.214905 229.977539,536.479309 
	C230.782867,546.517517 231.240143,556.584167 232.087219,566.618408 
	C233.277695,580.720154 234.748627,594.798157 235.977448,608.896912 
	C236.779282,618.096680 237.216080,627.329346 238.082687,636.522156 
	C239.255081,648.958557 240.489822,661.395569 242.075653,673.783997 
	C242.982056,680.864624 244.638412,687.849304 245.982986,695.015198 
	C259.424927,693.627380 272.130798,692.206482 284.859497,691.032349 
	C297.327026,689.882385 309.827759,689.093384 322.295746,687.948059 
	C339.164551,686.398315 356.004028,684.522766 372.878662,683.045105 
	C386.673798,681.837219 400.496521,680.922058 414.316986,680.031433 
	C431.291351,678.937622 448.272400,677.937805 465.257324,677.022095 
	C479.468964,676.255981 493.686584,675.571594 507.908295,675.026794 
	C527.778198,674.265564 547.655396,673.695557 567.527283,672.983765 
	C573.806396,672.758850 580.077087,672.308228 586.354248,672.019592 
	C601.397949,671.327881 616.442322,670.648926 631.488281,670.008484 
	C640.419800,669.628296 649.360779,669.436951 658.285461,668.943970 
	C661.825867,668.748474 665.333801,667.966492 669.269653,667.391052 
	C669.853149,657.845459 670.773376,648.470276 670.900940,639.084290 
	C671.024536,629.990295 670.439636,620.879700 669.972046,611.786377 
	C669.429626,601.238525 668.665222,590.702209 668.016541,580.159668 
	C667.002441,563.678040 666.055481,547.192078 664.979675,530.714539 
	C664.399658,521.831482 663.744629,512.949097 662.883911,504.089752 
	C661.708923,491.995453 660.380493,479.914642 658.973999,467.844818 
	C658.024780,459.699707 656.912537,451.570740 655.697205,443.460938 
	C655.239075,440.403778 653.716736,438.641785 649.988403,438.910065 
	C641.404541,439.527649 632.765808,439.403839 624.187622,440.072479 
	C614.688965,440.812866 605.226379,442.045227 595.760132,443.165070 
	C585.176758,444.416992 574.606873,445.783081 563.299316,446.971954 
	C562.188232,447.275543 561.077148,447.579163 559.098633,447.973083 
M335.024231,695.542175 
	C321.925018,696.754761 308.825775,697.967346 295.726562,699.179993 
	C295.755219,699.590454 295.783905,700.000916 295.812561,700.411377 
	C310.331116,699.611877 324.848633,698.793457 339.368439,698.017578 
	C358.519348,696.994202 377.675537,696.065796 396.822418,694.973145 
	C406.040039,694.447144 415.254944,693.782532 424.446960,692.922607 
	C437.044739,691.743958 449.621735,690.339844 462.203583,688.994507 
	C471.627716,687.986755 481.045471,686.919189 490.466064,685.878235 
	C490.431366,685.450439 490.396667,685.022644 490.361969,684.594849 
	C483.644226,685.062195 476.928528,685.561646 470.208344,685.990479 
	C454.224396,687.010498 438.234344,687.937744 422.254364,689.015564 
	C408.762054,689.925598 395.282990,691.030701 381.793457,691.983826 
	C366.482880,693.065674 351.167145,694.074646 335.024231,695.542175 
z"/>
<path fill="#9BCBFB" opacity="1.000000" stroke="none" 
	d="
M323.070374,455.038971 
	C319.339783,455.680084 315.609161,456.321198 311.396210,456.562286 
	C305.833344,452.054291 300.819397,447.859863 295.642792,443.876801 
	C293.255463,442.039948 290.550018,440.616547 287.988831,439.005646 
	C285.754211,436.871582 283.519562,434.737518 281.138367,431.925964 
	C278.821045,427.384064 277.242401,423.498169 278.869965,418.880127 
	C279.196381,417.954071 277.956207,416.475891 277.438385,415.252289 
	C277.110565,415.370728 276.782745,415.489136 276.454926,415.607544 
	C276.129120,417.276093 275.803314,418.944641 275.450531,420.751343 
	C273.376404,419.708740 271.683136,418.857544 269.989868,418.006378 
	C269.989868,418.006378 270.000000,418.000000 269.995972,417.648499 
	C269.324341,416.533539 268.656677,415.770081 267.989044,415.006622 
	C267.989044,415.006622 268.000000,415.000000 267.995605,414.625854 
	C266.731873,411.583710 265.501556,408.901550 264.208679,406.249939 
	C251.788300,380.776398 249.872803,354.243347 256.583008,326.982147 
	C258.986267,317.218445 262.167145,307.646179 264.993103,297.986542 
	C267.251373,295.214264 269.509644,292.441986 271.920135,289.376648 
	C275.074951,288.735992 278.077545,288.388428 281.360199,288.369934 
	C278.627502,291.613708 275.614716,294.528351 272.601959,297.442993 
	C273.245789,298.060120 273.889618,298.677246 274.533447,299.294373 
	C277.697662,295.583496 280.861877,291.872620 284.026062,288.161743 
	C287.709961,287.793396 291.393829,287.425018 295.305817,287.346130 
	C290.524811,292.091705 285.254364,296.294952 280.606354,301.100281 
	C277.892487,303.906006 276.173553,307.674133 274.003479,311.004639 
	C274.000000,311.000000 274.010803,311.006683 273.652374,311.041626 
	C272.531738,312.389221 271.769531,313.701843 270.861603,315.328491 
	C268.434204,320.430237 266.152527,325.217987 263.674255,330.129791 
	C263.235413,330.468231 263.082642,330.734070 262.997681,331.416779 
	C262.929016,332.512299 262.882050,333.242432 262.554962,334.020691 
	C262.206757,334.721924 262.138672,335.375000 262.031769,336.439606 
	C261.940826,338.226654 261.888733,339.602173 261.459656,341.090790 
	C260.722290,344.830902 260.170654,348.454437 260.103485,352.086914 
	C260.079468,353.387543 261.225555,354.709808 261.875641,356.350586 
	C261.944183,357.118683 261.974670,357.558411 261.716492,358.263184 
	C261.296112,359.666931 260.881927,360.856232 261.075378,361.936676 
	C263.722382,376.718414 268.444366,390.697449 276.048309,403.787323 
	C280.125793,410.806549 285.284302,417.660278 285.007935,425.010956 
	C290.552521,428.926910 295.633179,432.148682 300.296021,435.891052 
	C308.028900,442.097473 315.493042,448.638763 323.070374,455.038971 
z"/>
<path fill="#ABD3FC" opacity="1.000000" stroke="none" 
	d="
M570.183411,435.520203 
	C569.232544,436.147217 568.437500,436.451141 567.321167,436.402313 
	C567.900879,432.869049 568.765381,429.677673 569.709045,426.509857 
	C574.901855,409.078644 577.962585,391.581360 570.838074,373.915741 
	C564.341064,357.805878 555.502380,343.010437 545.437195,328.887054 
	C534.979431,314.212891 522.693420,301.662018 506.329529,293.532318 
	C504.983093,292.863403 504.086029,291.289825 502.980194,290.136597 
	C504.407654,290.411224 505.835083,290.685852 507.629822,291.017242 
	C513.230713,294.786407 518.404785,298.586304 523.709717,302.193817 
	C536.776489,311.079651 546.292053,323.154724 553.764343,336.760193 
	C560.776123,349.527161 567.113220,362.680115 573.361572,375.846191 
	C578.732910,387.164368 579.078247,399.245758 576.662109,411.298492 
	C575.045410,419.363098 572.480042,427.237518 570.183411,435.520203 
z"/>
<path fill="#ABD3FC" opacity="1.000000" stroke="none" 
	d="
M264.681580,298.135681 
	C262.167145,307.646179 258.986267,317.218445 256.583008,326.982147 
	C249.872803,354.243347 251.788300,380.776398 264.208679,406.249939 
	C265.501556,408.901550 266.731873,411.583710 267.992065,414.630493 
	C261.288391,407.182800 258.241058,397.613983 254.972321,388.103333 
	C249.891251,373.319519 250.160721,357.971619 251.265930,342.869171 
	C252.406387,327.285126 255.129211,311.704681 264.681580,298.135681 
z"/>
<path fill="#ABD3FC" opacity="1.000000" stroke="none" 
	d="
M288.125519,439.310089 
	C290.550018,440.616547 293.255463,442.039948 295.642792,443.876801 
	C300.819397,447.859863 305.833344,452.054291 310.957642,456.498352 
	C310.243164,456.876923 309.484863,456.919464 308.351410,456.898865 
	C301.404907,451.095337 294.833557,445.354919 288.125519,439.310089 
z"/>
<path fill="#ABD3FC" opacity="1.000000" stroke="none" 
	d="
M270.021881,418.357788 
	C271.683136,418.857544 273.376404,419.708740 275.450531,420.751343 
	C275.803314,418.944641 276.129120,417.276093 276.454926,415.607544 
	C276.782745,415.489136 277.110565,415.370728 277.438385,415.252289 
	C277.956207,416.475891 279.196381,417.954071 278.869965,418.880127 
	C277.242401,423.498169 278.821045,427.384064 280.993073,431.629852 
	C277.347473,427.577240 273.700684,423.143219 270.021881,418.357788 
z"/>
<path fill="#ABD3FC" opacity="1.000000" stroke="none" 
	d="
M268.013947,415.329346 
	C268.656677,415.770081 269.324341,416.533539 269.992676,417.652893 
	C269.341858,417.223236 268.690369,416.437622 268.013947,415.329346 
z"/>
<path fill="#FFFFFF" opacity="1.000000" stroke="none" 
	d="
M262.005127,357.998138 
	C261.974670,357.558411 261.944183,357.118683 261.936432,355.885681 
	C261.918335,350.387543 261.877502,345.682617 261.836670,340.977722 
	C261.888733,339.602173 261.940826,338.226654 262.288086,336.279602 
	C262.667175,335.129547 262.751129,334.551056 262.835083,333.972534 
	C262.882050,333.242432 262.929016,332.512299 263.219421,331.314667 
	C263.760193,330.644867 263.896179,330.364380 263.870850,330.005707 
	C266.152527,325.217987 268.434204,320.430237 271.162781,315.192230 
	C272.410004,313.496887 273.210419,312.251770 274.010803,311.006683 
	C274.010803,311.006683 274.000000,311.000000 274.307434,310.868652 
	C283.082031,302.846252 291.549194,294.955200 300.016388,287.064148 
	C334.909760,286.709412 369.802551,286.229736 404.696808,286.064362 
	C417.793732,286.002289 430.900421,286.517639 443.991028,287.053345 
	C454.723877,287.492493 465.439545,288.351990 476.800201,289.334351 
	C488.454041,295.021606 499.601166,300.152466 510.434448,305.877197 
	C516.256714,308.953888 521.535034,312.967102 524.020264,319.671173 
	C525.411926,323.425232 526.766785,327.465363 529.223206,330.497711 
	C535.057251,337.699585 541.868896,344.110870 547.682495,351.327454 
	C557.554138,363.581512 563.590393,377.680939 564.917419,393.419128 
	C566.190918,408.523285 563.929688,423.157257 557.003601,436.853424 
	C541.193237,437.904938 525.376587,438.871246 509.574158,440.031250 
	C492.809631,441.261932 476.058075,442.669800 459.301880,444.013184 
	C446.987732,445.000458 434.676025,446.018341 422.361786,447.004608 
	C409.719635,448.017151 397.074707,448.994781 384.432892,450.011261 
	C368.012939,451.331421 351.593445,452.658386 335.177429,454.026306 
	C332.733917,454.229919 330.310425,454.673615 327.241394,454.679779 
	C315.498138,446.486145 305.302307,437.690857 296.524963,427.163635 
	C286.170349,414.744659 277.104889,401.544891 271.144562,386.523621 
	C267.470490,377.264160 265.010315,367.523010 262.005127,357.998138 
z"/>
<path fill="#9BCBFB" opacity="1.000000" stroke="none" 
	d="
M502.530518,290.077911 
	C504.086029,291.289825 504.983093,292.863403 506.329529,293.532318 
	C522.693420,301.662018 534.979431,314.212891 545.437195,328.887054 
	C555.502380,343.010437 564.341064,357.805878 570.838074,373.915741 
	C577.962585,391.581360 574.901855,409.078644 569.709045,426.509857 
	C568.765381,429.677673 567.900879,432.869049 566.998047,436.441711 
	C565.605469,436.876831 564.214600,436.919769 562.417480,436.529694 
	C562.370056,435.001251 562.608704,433.847839 563.105835,432.819305 
	C569.267700,420.070038 569.919189,406.697327 567.488708,393.034363 
	C563.306702,369.524963 552.654602,349.525238 534.941772,333.349274 
	C532.991943,331.568665 531.623047,329.151917 529.984680,327.030182 
	C530.277100,326.725616 530.569458,326.421051 530.861877,326.116516 
	C534.596436,328.457886 538.331055,330.799255 542.065674,333.140625 
	C538.539978,324.052582 531.983521,318.355652 524.998230,312.945343 
	C512.148132,302.992584 497.545593,296.198303 483.078735,289.132172 
	C489.412781,289.427856 495.746826,289.723541 502.530518,290.077911 
M543.517456,334.407288 
	C543.517456,334.407288 543.585632,334.521149 543.517456,334.407288 
z"/>
<path fill="#ABD4FC" opacity="1.000000" stroke="none" 
	d="
M482.647339,289.085388 
	C497.545593,296.198303 512.148132,302.992584 524.998230,312.945343 
	C531.983521,318.355652 538.539978,324.052582 542.065674,333.140625 
	C538.331055,330.799255 534.596436,328.457886 530.861877,326.116516 
	C530.569458,326.421051 530.277100,326.725616 529.984680,327.030182 
	C531.623047,329.151917 532.991943,331.568665 534.941772,333.349274 
	C552.654602,349.525238 563.306702,369.524963 567.488708,393.034363 
	C569.919189,406.697327 569.267700,420.070038 563.105835,432.819305 
	C562.608704,433.847839 562.370056,435.001251 562.004028,436.466003 
	C560.607056,436.890167 559.217285,436.944946 557.415527,436.926575 
	C563.929688,423.157257 566.190918,408.523285 564.917419,393.419128 
	C563.590393,377.680939 557.554138,363.581512 547.682495,351.327454 
	C541.868896,344.110870 535.057251,337.699585 529.223206,330.497711 
	C526.766785,327.465363 525.411926,323.425232 524.020264,319.671173 
	C521.535034,312.967102 516.256714,308.953888 510.434448,305.877197 
	C499.601166,300.152466 488.454041,295.021606 477.248962,289.356964 
	C478.778839,289.059814 480.497406,289.049225 482.647339,289.085388 
M528.519165,325.410645 
	C528.519165,325.410645 528.587463,325.523254 528.519165,325.410645 
z"/>
<path fill="#ABD3FC" opacity="1.000000" stroke="none" 
	d="
M299.608276,287.028198 
	C291.549194,294.955200 283.082031,302.846252 274.310913,310.873291 
	C276.173553,307.674133 277.892487,303.906006 280.606354,301.100281 
	C285.254364,296.294952 290.524811,292.091705 295.728149,287.387024 
	C297.015015,287.089661 298.107605,287.040955 299.608276,287.028198 
z"/>
<path fill="#ABD4FC" opacity="1.000000" stroke="none" 
	d="
M283.680786,288.106903 
	C280.861877,291.872620 277.697662,295.583496 274.533447,299.294373 
	C273.889618,298.677246 273.245789,298.060120 272.601959,297.442993 
	C275.614716,294.528351 278.627502,291.613708 281.790558,288.412933 
	C282.405762,288.101898 282.870636,288.076996 283.680786,288.106903 
z"/>
<path fill="#FFFFFF" opacity="1.000000" stroke="none" 
	d="
M564.031128,447.099457 
	C574.606873,445.783081 585.176758,444.416992 595.760132,443.165070 
	C605.226379,442.045227 614.688965,440.812866 624.187622,440.072479 
	C632.765808,439.403839 641.404541,439.527649 649.988403,438.910065 
	C653.716736,438.641785 655.239075,440.403778 655.697205,443.460938 
	C656.912537,451.570740 658.024780,459.699707 658.973999,467.844818 
	C660.380493,479.914642 661.708923,491.995453 662.883911,504.089752 
	C663.744629,512.949097 664.399658,521.831482 664.979675,530.714539 
	C666.055481,547.192078 667.002441,563.678040 668.016541,580.159668 
	C668.665222,590.702209 669.429626,601.238525 669.972046,611.786377 
	C670.439636,620.879700 671.024536,629.990295 670.900940,639.084290 
	C670.773376,648.470276 669.853149,657.845459 669.269653,667.391052 
	C665.333801,667.966492 661.825867,668.748474 658.285461,668.943970 
	C649.360779,669.436951 640.419800,669.628296 631.488281,670.008484 
	C616.442322,670.648926 601.397949,671.327881 586.354248,672.019592 
	C580.077087,672.308228 573.806396,672.758850 567.527283,672.983765 
	C547.655396,673.695557 527.778198,674.265564 507.908295,675.026794 
	C493.686584,675.571594 479.468964,676.255981 465.257324,677.022095 
	C448.272400,677.937805 431.291351,678.937622 414.316986,680.031433 
	C400.496521,680.922058 386.673798,681.837219 372.878662,683.045105 
	C356.004028,684.522766 339.164551,686.398315 322.295746,687.948059 
	C309.827759,689.093384 297.327026,689.882385 284.859497,691.032349 
	C272.130798,692.206482 259.424927,693.627380 245.982986,695.015198 
	C244.638412,687.849304 242.982056,680.864624 242.075653,673.783997 
	C240.489822,661.395569 239.255081,648.958557 238.082687,636.522156 
	C237.216080,627.329346 236.779282,618.096680 235.977448,608.896912 
	C234.748627,594.798157 233.277695,580.720154 232.087219,566.618408 
	C231.240143,556.584167 230.782867,546.517517 229.977539,536.479309 
	C228.752930,521.214905 227.316849,505.967438 226.093903,490.702911 
	C225.556656,483.996948 225.323120,477.266663 224.903061,469.667603 
	C228.581436,470.159485 231.603195,470.881500 234.632217,470.913361 
	C247.461563,471.048126 260.306702,471.354279 273.120453,470.890289 
	C290.453583,470.262573 307.763214,468.986053 325.746002,468.318726 
	C329.742188,470.491180 333.017151,472.448669 336.418030,474.155273 
	C355.719421,483.840851 375.873383,491.418854 396.770172,496.677826 
	C417.569702,501.912415 438.448792,506.544891 460.357178,504.198456 
	C476.240448,502.497314 491.647552,499.559448 506.687164,494.227142 
	C525.579590,487.528809 541.623840,476.668335 554.696472,461.595764 
	C558.424011,457.297913 560.952698,451.960297 564.031128,447.099457 
z"/>
<path fill="#FFFFFF" opacity="1.000000" stroke="none" 
	d="
M347.967651,466.164185 
	C360.166290,465.440002 372.371643,464.812622 384.561676,463.964935 
	C397.204956,463.085785 409.836121,462.026733 422.467590,460.985504 
	C438.211365,459.687744 453.956604,458.400604 469.689056,456.975006 
	C487.201599,455.388092 504.705383,453.699890 522.203247,451.957916 
	C530.852295,451.096893 539.479492,450.015930 548.395996,449.382019 
	C547.775879,451.149567 546.876404,452.569519 545.680481,454.138153 
	C538.920105,460.185303 532.456116,466.083771 525.669556,472.009033 
	C524.560608,472.687439 523.774170,473.339081 522.993896,473.995361 
	C523.000000,474.000000 522.991333,473.985718 522.668335,474.010315 
	C521.559814,474.687012 520.774170,475.339142 519.994263,475.995636 
	C520.000000,476.000000 519.991882,475.986664 519.630127,476.020752 
	C517.470093,476.894135 515.640259,477.672424 513.878296,478.582123 
	C497.420410,487.079590 479.895477,491.423828 461.420837,490.897247 
	C446.259521,490.465149 431.124481,489.109161 415.649170,488.124146 
	C414.880127,488.058716 414.439697,488.031830 413.806610,487.726074 
	C412.734589,487.351410 411.855225,487.255615 410.651611,487.117676 
	C409.894287,487.025360 409.461243,486.975220 408.868591,486.668488 
	C408.130951,486.326630 407.552917,486.241364 406.575500,486.111786 
	C386.144501,481.272064 366.490753,475.371429 347.967651,466.164185 
z"/>
<path fill="#9BCBFB" opacity="1.000000" stroke="none" 
	d="
M413.999298,488.005005 
	C414.439697,488.031830 414.880127,488.058716 415.740326,488.475281 
	C424.646179,490.571716 433.073883,493.299042 441.629578,493.788361 
	C464.641266,495.104431 487.406677,493.309082 508.750916,483.479034 
	C512.791138,481.618347 516.259583,478.516083 519.991882,475.986664 
	C519.991882,475.986664 520.000000,476.000000 520.350525,475.995514 
	C521.464478,475.322601 522.227905,474.654144 522.991333,473.985718 
	C522.991333,473.985718 523.000000,474.000000 523.350281,473.995239 
	C524.464417,473.321106 525.228333,472.651703 525.992188,471.982269 
	C532.456116,466.083771 538.920105,460.185303 546.025879,454.110352 
	C548.100342,452.248993 549.533081,450.564117 550.965820,448.879211 
	C553.676758,448.577179 556.387695,448.275116 559.512695,448.292786 
	C556.398804,453.794067 553.388245,459.439636 549.239502,464.064240 
	C539.445801,474.981415 527.062988,482.262299 513.715027,488.216919 
	C492.673859,497.603516 470.615692,502.751099 447.743530,502.705811 
	C435.306976,502.681183 422.712128,500.437744 410.476105,497.840942 
	C382.128510,491.824707 354.656006,483.158997 330.051605,467.164246 
	C335.739655,466.790039 341.427673,466.415833 347.541687,466.102905 
	C366.490753,475.371429 386.144501,481.272064 406.622467,486.392212 
	C407.721924,486.786316 408.375061,486.855682 409.028198,486.925049 
	C409.461243,486.975220 409.894287,487.025360 410.712463,487.425232 
	C412.064819,487.851624 413.032043,487.928314 413.999298,488.005005 
z"/>
<path fill="#FFFFFF" opacity="1.000000" stroke="none" 
	d="
M335.438965,695.328735 
	C351.167145,694.074646 366.482880,693.065674 381.793457,691.983826 
	C395.282990,691.030701 408.762054,689.925598 422.254364,689.015564 
	C438.234344,687.937744 454.224396,687.010498 470.208344,685.990479 
	C476.928528,685.561646 483.644226,685.062195 490.361969,684.594849 
	C490.396667,685.022644 490.431366,685.450439 490.466064,685.878235 
	C481.045471,686.919189 471.627716,687.986755 462.203583,688.994507 
	C449.621735,690.339844 437.044739,691.743958 424.446960,692.922607 
	C415.254944,693.782532 406.040039,694.447144 396.822418,694.973145 
	C377.675537,696.065796 358.519348,696.994202 339.368439,698.017578 
	C324.848633,698.793457 310.331116,699.611877 295.812561,700.411377 
	C295.783905,700.000916 295.755219,699.590454 295.726562,699.179993 
	C308.825775,697.967346 321.925018,696.754761 335.438965,695.328735 
z"/>
<path fill="#ABD4FC" opacity="1.000000" stroke="none" 
	d="
M329.700623,467.210205 
	C354.656006,483.158997 382.128510,491.824707 410.476105,497.840942 
	C422.712128,500.437744 435.306976,502.681183 447.743530,502.705811 
	C470.615692,502.751099 492.673859,497.603516 513.715027,488.216919 
	C527.062988,482.262299 539.445801,474.981415 549.239502,464.064240 
	C553.388245,459.439636 556.398804,453.794067 559.946411,448.247650 
	C561.077148,447.579163 562.188232,447.275543 563.665222,447.035706 
	C560.952698,451.960297 558.424011,457.297913 554.696472,461.595764 
	C541.623840,476.668335 525.579590,487.528809 506.687164,494.227142 
	C491.647552,499.559448 476.240448,502.497314 460.357178,504.198456 
	C438.448792,506.544891 417.569702,501.912415 396.770172,496.677826 
	C375.873383,491.418854 355.719421,483.840851 336.418030,474.155273 
	C333.017151,472.448669 329.742188,470.491180 326.202393,468.383362 
	C327.113678,467.830170 328.231628,467.543182 329.700623,467.210205 
z"/>
<path fill="#ABD4FC" opacity="1.000000" stroke="none" 
	d="
M261.716492,358.263184 
	C265.010315,367.523010 267.470490,377.264160 271.144562,386.523621 
	C277.104889,401.544891 286.170349,414.744659 296.524963,427.163635 
	C305.302307,437.690857 315.498138,446.486145 326.804688,454.614319 
	C325.955292,454.919525 324.906311,454.963776 323.463867,455.023499 
	C315.493042,448.638763 308.028900,442.097473 300.296021,435.891052 
	C295.633179,432.148682 290.552521,428.926910 285.007935,425.010956 
	C285.284302,417.660278 280.125793,410.806549 276.048309,403.787323 
	C268.444366,390.697449 263.722382,376.718414 261.075378,361.936676 
	C260.881927,360.856232 261.296112,359.666931 261.716492,358.263184 
z"/>
<path fill="#ABD2FC" opacity="1.000000" stroke="none" 
	d="
M550.634033,448.929810 
	C549.533081,450.564117 548.100342,452.248993 546.322266,453.961670 
	C546.876404,452.569519 547.775879,451.149567 548.825439,449.446594 
	C549.417786,449.102539 549.859985,449.041443 550.634033,448.929810 
z"/>
<path fill="#ABD4FC" opacity="1.000000" stroke="none" 
	d="
M261.459656,341.090790 
	C261.877502,345.682617 261.918335,350.387543 261.898376,355.557312 
	C261.225555,354.709808 260.079468,353.387543 260.103485,352.086914 
	C260.170654,348.454437 260.722290,344.830902 261.459656,341.090790 
z"/>
<path fill="#ABD3FC" opacity="1.000000" stroke="none" 
	d="
M273.652374,311.041626 
	C273.210419,312.251770 272.410004,313.496887 271.308472,314.878235 
	C271.769531,313.701843 272.531738,312.389221 273.652374,311.041626 
z"/>
<path fill="#ABD4FC" opacity="1.000000" stroke="none" 
	d="
M262.554962,334.020691 
	C262.751129,334.551056 262.667175,335.129547 262.326935,335.868103 
	C262.138672,335.375000 262.206757,334.721924 262.554962,334.020691 
z"/>
<path fill="#ABD4FC" opacity="1.000000" stroke="none" 
	d="
M263.674225,330.129791 
	C263.896179,330.364380 263.760193,330.644867 263.241089,330.949249 
	C263.082642,330.734070 263.235413,330.468231 263.674225,330.129791 
z"/>
<path fill="#ABD4FC" opacity="1.000000" stroke="none" 
	d="
M543.551514,334.464233 
	C543.585632,334.521149 543.517456,334.407288 543.551514,334.464233 
z"/>
<path fill="#9BCBFB" opacity="1.000000" stroke="none" 
	d="
M528.553345,325.466949 
	C528.587463,325.523254 528.519165,325.410645 528.553345,325.466949 
z"/>
<path fill="#ABD3FC" opacity="1.000000" stroke="none" 
	d="
M519.630127,476.020752 
	C516.259583,478.516083 512.791138,481.618347 508.750916,483.479034 
	C487.406677,493.309082 464.641266,495.104431 441.629578,493.788361 
	C433.073883,493.299042 424.646179,490.571716 416.068970,488.513855 
	C431.124481,489.109161 446.259521,490.465149 461.420837,490.897247 
	C479.895477,491.423828 497.420410,487.079590 513.878296,478.582123 
	C515.640259,477.672424 517.470093,476.894135 519.630127,476.020752 
z"/>
<path fill="#ABD3FC" opacity="1.000000" stroke="none" 
	d="
M413.806610,487.726105 
	C413.032043,487.928314 412.064819,487.851624 411.036743,487.467407 
	C411.855225,487.255615 412.734589,487.351410 413.806610,487.726105 
z"/>
<path fill="#ABD3FC" opacity="1.000000" stroke="none" 
	d="
M525.669556,472.009033 
	C525.228333,472.651703 524.464417,473.321106 523.344177,473.990601 
	C523.774170,473.339081 524.560608,472.687439 525.669556,472.009033 
z"/>
<path fill="#ABD3FC" opacity="1.000000" stroke="none" 
	d="
M522.668335,474.010315 
	C522.227905,474.654144 521.464478,475.322601 520.344788,475.991150 
	C520.774170,475.339142 521.559814,474.687012 522.668335,474.010315 
z"/>
<path fill="#ABD3FC" opacity="1.000000" stroke="none" 
	d="
M408.868591,486.668488 
	C408.375061,486.855682 407.721924,486.786316 407.021820,486.436523 
	C407.552917,486.241364 408.130951,486.326630 408.868591,486.668488 
z"/>
</svg>