<svg version="1.1" id="Layer_1" xmlns="http://www.w3.org/2000/svg" xmlns:xlink="http://www.w3.org/1999/xlink" x="0px" y="0px"
	 width="100%" viewBox="0 0 721 603" enable-background="new 0 0 721 603" xml:space="preserve">
<path fill="#FFFFFF" opacity="1.000000" stroke="none" 
	d="
M56.000000,604.000000 
	C37.681404,604.000000 19.362806,604.000000 1.000000,604.000000 
	C1.000000,443.310699 1.000000,282.621399 1.319153,121.711044 
	C2.428032,126.033699 3.129494,130.594803 4.021524,135.118317 
	C10.833437,169.661697 29.551582,195.684753 60.400303,212.630463 
	C92.455528,230.238922 127.334961,237.283340 163.504166,237.767654 
	C180.170898,237.990829 196.883102,236.189087 213.546310,234.929901 
	C231.438553,233.577820 248.234055,227.901031 264.066986,219.829666 
	C281.510406,210.937271 297.640289,200.106674 310.608063,184.989914 
	C318.911255,175.310684 325.440460,164.703217 330.086609,152.905121 
	C336.702393,136.105637 337.232056,118.688232 334.932587,101.048798 
	C332.850281,85.075127 326.158722,71.339981 314.549072,60.098381 
	C306.192535,52.006729 298.105011,43.592331 289.281158,36.042183 
	C282.027924,29.835951 274.461212,23.483747 265.990601,19.315500 
	C246.239258,9.596180 224.810562,5.296663 202.983749,3.000037 
	C197.974487,2.472959 192.993820,1.673893 188.000000,1.000001 
	C365.921021,1.000000 543.842041,1.000000 722.000000,1.000000 
	C722.000000,147.355896 722.000000,293.711914 721.696045,440.260254 
	C715.038330,384.070068 708.684509,327.687561 702.231873,270.427460 
	C691.761169,271.337097 682.412476,272.257935 673.046387,272.940338 
	C653.569336,274.359467 634.096619,276.480927 614.597412,276.798248 
	C586.992004,277.247406 559.361694,276.456909 531.747681,275.913086 
	C523.496277,275.750519 515.248779,274.783020 507.025421,273.933868 
	C492.079651,272.390625 477.171387,270.466827 462.213440,269.064423 
	C448.711060,267.798492 435.170441,266.901978 421.633606,266.050598 
	C403.779510,264.927734 385.913971,263.983948 368.050842,263.008911 
	C355.147675,262.304626 342.245148,261.559174 329.333984,261.038757 
	C310.099335,260.263519 290.860840,259.528259 271.617157,259.053040 
	C259.959076,258.765167 248.271011,259.391296 236.628021,258.882965 
	C226.304031,258.432159 223.921967,263.954773 223.029083,272.110443 
	C222.848785,273.757263 223.000320,275.440521 223.000107,277.106964 
	C222.998871,286.604767 220.874924,288.751526 211.253937,290.051178 
	C204.394867,290.977692 197.537262,292.122101 190.802750,293.698059 
	C185.427551,294.955933 184.574417,297.088409 185.642029,302.422760 
	C188.136429,314.885956 190.514786,327.372375 192.486847,339.909119 
	C179.716766,340.973022 167.400772,341.987335 155.082901,342.978516 
	C142.439667,343.995850 129.793625,344.978210 117.150658,345.998840 
	C104.998886,346.979767 92.855446,348.071045 80.697510,348.966644 
	C65.884323,350.057831 51.056446,350.949188 36.242416,352.029694 
	C32.226158,352.322601 28.236916,352.985870 24.295769,353.471710 
	C25.889441,364.619293 27.531399,375.475769 28.969379,386.359161 
	C30.151684,395.307465 31.027208,404.295959 32.154991,413.251953 
	C33.712276,425.618713 35.427086,437.965607 36.982460,450.332611 
	C38.110069,459.298340 39.007553,468.293182 40.155712,477.256104 
	C41.342651,486.521698 42.848030,495.747650 43.958065,505.021637 
	C45.150528,514.984192 46.107182,524.976501 47.055038,534.966431 
	C48.421978,549.373291 49.857712,563.777344 50.905830,578.208679 
	C51.274845,583.289551 53.187359,589.629333 42.738895,590.678528 
	C48.096222,596.060242 52.048111,600.030151 56.000000,604.000000 
z"/>
<path fill="#FBE5BE" opacity="1.000000" stroke="none" 
	d="
M192.940125,339.849396 
	C190.514786,327.372375 188.136429,314.885956 185.642029,302.422760 
	C184.574417,297.088409 185.427551,294.955933 190.802750,293.698059 
	C197.537262,292.122101 204.394867,290.977692 211.253937,290.051178 
	C220.874924,288.751526 222.998871,286.604767 223.000107,277.106964 
	C223.000320,275.440521 222.848785,273.757263 223.029083,272.110443 
	C223.921967,263.954773 226.304031,258.432159 236.628021,258.882965 
	C248.271011,259.391296 259.959076,258.765167 271.617157,259.053040 
	C290.860840,259.528259 310.099335,260.263519 329.333984,261.038757 
	C342.245148,261.559174 355.147675,262.304626 368.050842,263.008911 
	C385.913971,263.983948 403.779510,264.927734 421.633606,266.050598 
	C435.170441,266.901978 448.711060,267.798492 462.213440,269.064423 
	C477.171387,270.466827 492.079651,272.390625 507.025421,273.933868 
	C515.248779,274.783020 523.496277,275.750519 531.747681,275.913086 
	C559.361694,276.456909 586.992004,277.247406 614.597412,276.798248 
	C634.096619,276.480927 653.569336,274.359467 673.046387,272.940338 
	C682.412476,272.257935 691.761169,271.337097 702.231873,270.427460 
	C708.684509,327.687561 715.038330,384.070068 721.696045,440.726288 
	C722.000000,446.688049 722.000000,452.376068 721.679749,458.681519 
	C715.530334,464.297913 708.181335,463.212769 701.428406,463.857941 
	C691.667480,464.790588 689.472046,467.296906 688.901428,475.597046 
	C688.105225,487.175934 685.797974,489.077637 673.992554,488.954193 
	C670.370422,488.916321 666.749634,488.375671 663.135864,487.993073 
	C650.000061,486.602386 636.846924,485.346893 623.739258,483.725983 
	C609.828613,482.005798 595.994019,479.643860 582.067322,478.089905 
	C569.426392,476.679413 556.712830,475.885986 544.019470,474.988342 
	C528.671936,473.903015 513.311951,472.994354 497.632660,471.750122 
	C496.462769,459.895935 495.734619,448.290924 494.748627,436.707794 
	C492.551514,410.897461 490.351868,385.086029 487.887238,359.300476 
	C486.956909,349.567505 486.351257,339.584442 483.553131,330.333771 
	C481.954163,325.047485 481.082764,322.113190 486.364899,319.560303 
	C486.486969,319.501312 486.380249,318.968903 486.380249,318.272980 
	C484.962494,318.197235 483.529327,317.985199 482.112946,318.066284 
	C470.000885,318.759735 457.884155,319.397583 445.783691,320.261017 
	C424.411957,321.786011 403.051239,323.465118 381.684906,325.066315 
	C367.271820,326.146454 352.851837,327.138550 338.444183,328.285828 
	C315.101959,330.144592 291.766998,332.094360 268.429657,334.013947 
	C257.341644,334.925964 246.259491,335.912781 235.166977,336.765289 
	C221.095459,337.846741 207.016098,338.826019 192.940125,339.849396 
z"/>
<path fill="#FFFFFF" opacity="1.000000" stroke="none" 
	d="
M497.957367,472.009216 
	C513.311951,472.994354 528.671936,473.903015 544.019470,474.988342 
	C556.712830,475.885986 569.426392,476.679413 582.067322,478.089905 
	C595.994019,479.643860 609.828613,482.005798 623.739258,483.725983 
	C636.846924,485.346893 650.000061,486.602386 663.135864,487.993073 
	C666.749634,488.375671 670.370422,488.916321 673.992554,488.954193 
	C685.797974,489.077637 688.105225,487.175934 688.901428,475.597046 
	C689.472046,467.296906 691.667480,464.790588 701.428406,463.857941 
	C708.181335,463.212769 715.530334,464.297913 721.679749,459.149475 
	C722.000000,507.307037 722.000000,555.614075 722.000000,604.000000 
	C502.645782,604.000000 283.291534,604.000000 63.594616,603.655396 
	C64.844002,602.539062 66.374535,601.285889 68.038078,601.073242 
	C79.596741,599.595276 91.160904,598.077148 102.766731,597.074768 
	C114.283257,596.080078 125.848816,595.639893 137.396271,595.019836 
	C150.605042,594.310547 163.818787,593.693970 177.027832,592.989624 
	C182.136993,592.717224 187.244598,592.379822 192.343521,591.958374 
	C207.939087,590.669128 223.528320,589.303467 239.123520,588.009766 
	C247.995911,587.273682 256.883820,586.715271 265.749237,585.907104 
	C279.175873,584.683044 292.583130,583.246582 306.009949,582.024902 
	C314.875336,581.218323 323.769135,580.724670 332.634918,579.922119 
	C346.232239,578.691406 359.814453,577.295044 373.406860,576.009094 
	C381.278656,575.264404 389.165955,574.677124 397.031952,573.878296 
	C409.129547,572.649719 421.210510,571.257874 433.306946,570.017273 
	C440.843750,569.244263 448.415771,568.788208 455.937073,567.895630 
	C468.642517,566.388000 481.303223,564.495605 494.016571,563.065552 
	C500.703705,562.313354 502.194031,561.360718 501.945435,554.788391 
	C501.476959,542.402832 500.624908,530.032288 500.024139,517.651062 
	C499.286041,502.439514 498.642029,487.223358 497.957367,472.009216 
z"/>
<path fill="#EF7961" opacity="1.000000" stroke="none" 
	d="
M497.632660,471.750122 
	C498.642029,487.223358 499.286041,502.439514 500.024139,517.651062 
	C500.624908,530.032288 501.476959,542.402832 501.945435,554.788391 
	C502.194031,561.360718 500.703705,562.313354 494.016571,563.065552 
	C481.303223,564.495605 468.642517,566.388000 455.937073,567.895630 
	C448.415771,568.788208 440.843750,569.244263 433.306946,570.017273 
	C421.210510,571.257874 409.129547,572.649719 397.031952,573.878296 
	C389.165955,574.677124 381.278656,575.264404 373.406860,576.009094 
	C359.814453,577.295044 346.232239,578.691406 332.634918,579.922119 
	C323.769135,580.724670 314.875336,581.218323 306.009949,582.024902 
	C292.583130,583.246582 279.175873,584.683044 265.749237,585.907104 
	C256.883820,586.715271 247.995911,587.273682 239.123520,588.009766 
	C223.528320,589.303467 207.939087,590.669128 192.343521,591.958374 
	C187.244598,592.379822 182.136993,592.717224 177.027832,592.989624 
	C163.818787,593.693970 150.605042,594.310547 137.396271,595.019836 
	C125.848816,595.639893 114.283257,596.080078 102.766731,597.074768 
	C91.160904,598.077148 79.596741,599.595276 68.038078,601.073242 
	C66.374535,601.285889 64.844002,602.539062 63.125957,603.655396 
	C60.958332,604.000000 58.916668,604.000000 56.437500,604.000000 
	C52.048111,600.030151 48.096222,596.060242 42.738895,590.678528 
	C53.187359,589.629333 51.274845,583.289551 50.905830,578.208679 
	C49.857712,563.777344 48.421978,549.373291 47.055038,534.966431 
	C46.107182,524.976501 45.150528,514.984192 43.958065,505.021637 
	C42.848030,495.747650 41.342651,486.521698 40.155712,477.256104 
	C39.007553,468.293182 38.110069,459.298340 36.982460,450.332611 
	C35.427086,437.965607 33.712276,425.618713 32.154991,413.251953 
	C31.027208,404.295959 30.151684,395.307465 28.969379,386.359161 
	C27.531399,375.475769 25.889441,364.619293 24.295769,353.471710 
	C28.236916,352.985870 32.226158,352.322601 36.242416,352.029694 
	C51.056446,350.949188 65.884323,350.057831 80.697510,348.966644 
	C92.855446,348.071045 104.998886,346.979767 117.150658,345.998840 
	C129.793625,344.978210 142.439667,343.995850 155.082901,342.978516 
	C167.400772,341.987335 179.716766,340.973022 192.486847,339.909119 
	C207.016098,338.826019 221.095459,337.846741 235.166977,336.765289 
	C246.259491,335.912781 257.341644,334.925964 268.429657,334.013947 
	C291.766998,332.094360 315.101959,330.144592 338.444183,328.285828 
	C352.851837,327.138550 367.271820,326.146454 381.684906,325.066315 
	C403.051239,323.465118 424.411957,321.786011 445.783691,320.261017 
	C457.884155,319.397583 470.000885,318.759735 482.112946,318.066284 
	C483.529327,317.985199 484.962494,318.197235 486.380249,318.272980 
	C486.380249,318.968903 486.486969,319.501312 486.364899,319.560303 
	C481.082764,322.113190 481.954163,325.047485 483.553131,330.333771 
	C486.351257,339.584442 486.956909,349.567505 487.887238,359.300476 
	C490.351868,385.086029 492.551514,410.897461 494.748627,436.707794 
	C495.734619,448.290924 496.462769,459.895935 497.632660,471.750122 
M487.324127,471.355194 
	C487.158386,465.082001 487.265869,458.787445 486.778107,452.539398 
	C484.967560,429.345520 483.175781,406.146362 480.955658,382.989594 
	C479.371521,366.466217 476.945618,350.024628 475.250519,333.510132 
	C474.690643,328.055664 472.132111,326.414917 467.106384,326.861023 
	C451.223358,328.270874 435.306732,329.336212 419.446075,330.955872 
	C394.493774,333.503967 369.586365,336.488678 344.641510,339.113098 
	C322.006470,341.494476 299.364044,343.837097 276.693146,345.837006 
	C254.175797,347.823395 231.615067,349.314117 209.082611,351.136383 
	C204.697495,351.491028 200.354767,352.370026 195.071991,353.003113 
	C181.754395,353.997101 168.445541,355.133942 155.117081,355.950562 
	C136.476517,357.092621 117.831635,358.340088 99.169342,358.898346 
	C82.688408,359.391327 66.181076,359.001923 49.685398,359.002106 
	C47.913445,359.002136 46.141491,359.002136 43.914272,359.002136 
	C44.312069,366.216003 44.551880,372.792053 45.060482,379.347229 
	C46.308403,395.431213 47.701366,411.503876 48.990116,427.584778 
	C49.412094,432.850159 49.618877,438.132965 50.051998,443.397308 
	C51.334576,458.986359 52.682652,474.570038 54.001751,490.156128 
	C54.696354,498.363373 55.300129,506.579346 56.094032,514.776917 
	C57.330059,527.539734 58.529579,540.309875 60.057472,553.039368 
	C61.149555,562.138000 62.633675,571.197144 64.283539,580.211609 
	C64.489265,581.335632 66.788033,582.864136 68.110405,582.857666 
	C73.381401,582.832031 78.660469,582.385986 83.917076,581.889404 
	C97.008873,580.652527 110.085762,579.257996 123.176979,578.014587 
	C131.374374,577.235901 139.594421,576.694641 147.790924,575.907654 
	C160.719604,574.666382 173.624573,573.165344 186.562622,572.038574 
	C200.030273,570.865723 213.519836,569.924683 227.009659,569.031006 
	C243.485092,567.939453 259.968445,566.961853 276.452820,566.012329 
	C289.157410,565.280518 301.864166,564.554749 314.578369,564.029846 
	C333.281342,563.257568 351.992310,562.680420 370.698853,561.992126 
	C378.638977,561.699951 386.576660,561.341492 394.515106,561.004944 
	C410.223663,560.338989 425.931213,559.646790 441.640808,559.006042 
	C450.913147,558.627747 460.193970,558.430786 469.460876,557.955017 
	C475.519623,557.643982 481.560272,556.979492 488.294189,556.416016 
	C488.861389,544.589050 489.626923,532.743774 489.914825,520.887024 
	C490.058807,514.955811 489.264740,509.006256 489.012909,503.059998 
	C488.620392,493.791931 488.360168,484.518219 487.951111,475.251007 
	C487.903229,474.166473 487.269440,473.107788 487.324127,471.355194 
M239.791916,577.021179 
	C232.413849,577.681335 225.043106,578.442688 217.655991,578.977539 
	C206.950516,579.752686 196.221451,580.218323 185.523758,581.080627 
	C170.925278,582.257507 156.343826,583.650818 141.761108,585.015686 
	C134.098373,585.732849 126.448456,586.586853 118.792755,587.379150 
	C128.597137,587.958313 138.338104,587.525024 148.073425,586.989197 
	C165.559601,586.026733 183.042404,585.003113 200.526596,584.004517 
	C212.238907,583.335632 223.952408,582.686707 235.662888,581.987000 
	C240.770447,581.681946 245.885193,581.403625 250.973129,580.882996 
	C262.904785,579.662048 274.826080,578.336548 286.744080,576.987183 
	C295.331146,576.014893 303.906067,574.935669 312.486420,573.904175 
	C312.433685,573.504089 312.380951,573.104065 312.328217,572.703979 
	C309.276672,573.132263 306.237152,573.792542 303.171661,573.951294 
	C282.362244,575.028320 261.547363,575.999573 239.791916,577.021179 
z"/>
<path fill="#A1CEFB" opacity="1.000000" stroke="none" 
	d="
M187.531342,1.000001 
	C192.993820,1.673893 197.974487,2.472959 202.983749,3.000037 
	C224.810562,5.296663 246.239258,9.596180 265.990601,19.315500 
	C274.461212,23.483747 282.027924,29.835951 289.281158,36.042183 
	C298.105011,43.592331 306.192535,52.006729 314.549072,60.098381 
	C326.158722,71.339981 332.850281,85.075127 334.932587,101.048798 
	C337.232056,118.688232 336.702393,136.105637 330.086609,152.905121 
	C325.440460,164.703217 318.911255,175.310684 310.608063,184.989914 
	C297.640289,200.106674 281.510406,210.937271 264.066986,219.829666 
	C248.234055,227.901031 231.438553,233.577820 213.546310,234.929901 
	C196.883102,236.189087 180.170898,237.990829 163.504166,237.767654 
	C127.334961,237.283340 92.455528,230.238922 60.400303,212.630463 
	C29.551582,195.684753 10.833437,169.661697 4.021524,135.118317 
	C3.129494,130.594803 2.428032,126.033699 1.319153,121.245003 
	C1.000000,112.645767 1.000000,104.291534 1.304693,95.253647 
	C4.077861,81.258194 12.057823,70.923691 21.078121,61.766548 
	C33.857407,48.793400 47.312027,36.415867 61.165367,24.588888 
	C76.685371,11.339038 95.089127,4.413882 115.528610,2.966610 
	C120.706200,2.599998 125.843948,1.670725 131.000000,1.000000 
	C149.687561,1.000000 168.375122,1.000000 187.531342,1.000001 
M312.520325,76.083397 
	C305.300812,66.047302 297.162231,56.942665 286.314148,50.665565 
	C280.586334,47.351219 274.663086,44.365158 269.018463,40.919075 
	C263.479523,37.537544 257.074921,35.041042 254.839767,27.867250 
	C254.427719,26.544733 252.665436,25.272362 251.237198,24.705837 
	C246.792496,22.942816 242.315948,20.868740 237.657578,20.114229 
	C226.763748,18.349771 215.756058,17.289574 204.795807,15.933505 
	C183.882492,13.345982 163.070007,15.104474 142.461273,18.421167 
	C112.932571,23.173407 85.531319,34.428719 59.074806,48.014004 
	C49.505310,52.927898 39.837364,58.200058 33.990273,67.680634 
	C27.911100,77.537491 22.355783,87.752731 17.135342,98.095894 
	C8.623281,114.960701 11.549994,131.432922 19.769716,147.553101 
	C28.292368,164.267365 40.605103,177.801849 55.021118,189.515549 
	C72.562218,203.768539 91.913811,214.892120 114.094902,219.844528 
	C126.266823,222.562180 138.886810,223.226715 151.267990,225.064697 
	C168.038727,227.554321 184.866211,226.168228 201.279495,223.610336 
	C218.617493,220.908295 235.830292,216.302963 252.513397,210.767731 
	C275.042419,203.292938 293.874786,189.842575 307.423523,169.948013 
	C318.352112,153.900772 325.474548,136.407028 324.978607,116.591133 
	C324.619598,102.247795 320.063232,89.055382 312.520325,76.083397 
M95.083427,19.459745 
	C99.824265,17.659454 104.565102,15.859164 109.305939,14.058873 
	C109.087578,13.557518 108.869217,13.056164 108.650856,12.554809 
	C93.120903,14.684588 79.673058,21.418795 67.394493,30.738768 
	C67.614212,31.226904 67.833931,31.715040 68.053658,32.203175 
	C76.842186,28.088602 85.630722,23.974030 95.083427,19.459745 
z"/>
<path fill="#FFFFFF" opacity="1.000000" stroke="none" 
	d="
M130.531342,1.000000 
	C125.843948,1.670725 120.706200,2.599998 115.528610,2.966610 
	C95.089127,4.413882 76.685371,11.339038 61.165367,24.588888 
	C47.312027,36.415867 33.857407,48.793400 21.078121,61.766548 
	C12.057823,70.923691 4.077861,81.258194 1.304693,94.784988 
	C1.000000,63.727970 1.000000,32.455940 1.000000,1.000000 
	C44.020721,1.000000 87.041702,1.000000 130.531342,1.000000 
z"/>
<path fill="#FFFFFF" opacity="1.000000" stroke="none" 
	d="
M486.907257,472.037140 
	C487.269440,473.107788 487.903229,474.166473 487.951111,475.251007 
	C488.360168,484.518219 488.620392,493.791931 489.012909,503.059998 
	C489.264740,509.006256 490.058807,514.955811 489.914825,520.887024 
	C489.626923,532.743774 488.861389,544.589050 488.294189,556.416016 
	C481.560272,556.979492 475.519623,557.643982 469.460876,557.955017 
	C460.193970,558.430786 450.913147,558.627747 441.640808,559.006042 
	C425.931213,559.646790 410.223663,560.338989 394.515106,561.004944 
	C386.576660,561.341492 378.638977,561.699951 370.698853,561.992126 
	C351.992310,562.680420 333.281342,563.257568 314.578369,564.029846 
	C301.864166,564.554749 289.157410,565.280518 276.452820,566.012329 
	C259.968445,566.961853 243.485092,567.939453 227.009659,569.031006 
	C213.519836,569.924683 200.030273,570.865723 186.562622,572.038574 
	C173.624573,573.165344 160.719604,574.666382 147.790924,575.907654 
	C139.594421,576.694641 131.374374,577.235901 123.176979,578.014587 
	C110.085762,579.257996 97.008873,580.652527 83.917076,581.889404 
	C78.660469,582.385986 73.381401,582.832031 68.110405,582.857666 
	C66.788033,582.864136 64.489265,581.335632 64.283539,580.211609 
	C62.633675,571.197144 61.149555,562.138000 60.057472,553.039368 
	C58.529579,540.309875 57.330059,527.539734 56.094032,514.776917 
	C55.300129,506.579346 54.696354,498.363373 54.001751,490.156128 
	C52.682652,474.570038 51.334576,458.986359 50.051998,443.397308 
	C49.618877,438.132965 49.412094,432.850159 48.990116,427.584778 
	C47.701366,411.503876 46.308403,395.431213 45.060482,379.347229 
	C44.551880,372.792053 44.312069,366.216003 43.914272,359.002136 
	C46.141491,359.002136 47.913445,359.002136 49.685398,359.002106 
	C66.181076,359.001923 82.688408,359.391327 99.169342,358.898346 
	C117.831635,358.340088 136.476517,357.092621 155.117081,355.950562 
	C168.445541,355.133942 181.754395,353.997101 195.536102,353.421753 
	C196.989075,358.855896 197.922119,363.883118 198.975769,368.884949 
	C206.322235,403.759949 213.750534,438.617889 220.995499,473.513916 
	C222.076035,478.718445 225.286209,480.258301 229.880295,479.957214 
	C238.288132,479.406128 246.697845,478.794403 255.078018,477.929291 
	C273.292206,476.049011 291.452301,473.512451 309.702118,472.147522 
	C327.208221,470.838257 344.799377,470.120941 362.353699,470.111389 
	C401.931183,470.089905 441.509155,470.652710 481.086243,471.041992 
	C483.029663,471.061096 484.967072,471.691406 486.907257,472.037140 
z"/>
<path fill="#FBE5BE" opacity="1.000000" stroke="none" 
	d="
M487.115692,471.696167 
	C484.967072,471.691406 483.029663,471.061096 481.086243,471.041992 
	C441.509155,470.652710 401.931183,470.089905 362.353699,470.111389 
	C344.799377,470.120941 327.208221,470.838257 309.702118,472.147522 
	C291.452301,473.512451 273.292206,476.049011 255.078018,477.929291 
	C246.697845,478.794403 238.288132,479.406128 229.880295,479.957214 
	C225.286209,480.258301 222.076035,478.718445 220.995499,473.513916 
	C213.750534,438.617889 206.322235,403.759949 198.975769,368.884949 
	C197.922119,363.883118 196.989075,358.855896 195.996353,353.423798 
	C200.354767,352.370026 204.697495,351.491028 209.082611,351.136383 
	C231.615067,349.314117 254.175797,347.823395 276.693146,345.837006 
	C299.364044,343.837097 322.006470,341.494476 344.641510,339.113098 
	C369.586365,336.488678 394.493774,333.503967 419.446075,330.955872 
	C435.306732,329.336212 451.223358,328.270874 467.106384,326.861023 
	C472.132111,326.414917 474.690643,328.055664 475.250519,333.510132 
	C476.945618,350.024628 479.371521,366.466217 480.955658,382.989594 
	C483.175781,406.146362 484.967560,429.345520 486.778107,452.539398 
	C487.265869,458.787445 487.158386,465.082001 487.115692,471.696167 
z"/>
<path fill="#FFFFFF" opacity="1.000000" stroke="none" 
	d="
M240.263092,577.013062 
	C261.547363,575.999573 282.362244,575.028320 303.171661,573.951294 
	C306.237152,573.792542 309.276672,573.132263 312.328217,572.703979 
	C312.380951,573.104065 312.433685,573.504089 312.486420,573.904175 
	C303.906067,574.935669 295.331146,576.014893 286.744080,576.987183 
	C274.826080,578.336548 262.904785,579.662048 250.973129,580.882996 
	C245.885193,581.403625 240.770447,581.681946 235.662888,581.987000 
	C223.952408,582.686707 212.238907,583.335632 200.526596,584.004517 
	C183.042404,585.003113 165.559601,586.026733 148.073425,586.989197 
	C138.338104,587.525024 128.597137,587.958313 118.792755,587.379150 
	C126.448456,586.586853 134.098373,585.732849 141.761108,585.015686 
	C156.343826,583.650818 170.925278,582.257507 185.523758,581.080627 
	C196.221451,580.218323 206.950516,579.752686 217.655991,578.977539 
	C225.043106,578.442688 232.413849,577.681335 240.263092,577.013062 
z"/>
<path fill="#FFFFFF" opacity="1.000000" stroke="none" 
	d="
M312.712402,76.396576 
	C320.063232,89.055382 324.619598,102.247795 324.978607,116.591133 
	C325.474548,136.407028 318.352112,153.900772 307.423523,169.948013 
	C293.874786,189.842575 275.042419,203.292938 252.513397,210.767731 
	C235.830292,216.302963 218.617493,220.908295 201.279495,223.610336 
	C184.866211,226.168228 168.038727,227.554321 151.267990,225.064697 
	C138.886810,223.226715 126.266823,222.562180 114.094902,219.844528 
	C91.913811,214.892120 72.562218,203.768539 55.021118,189.515549 
	C40.605103,177.801849 28.292368,164.267365 19.769716,147.553101 
	C11.549994,131.432922 8.623281,114.960701 17.135342,98.095894 
	C22.355783,87.752731 27.911100,77.537491 33.990273,67.680634 
	C39.837364,58.200058 49.505310,52.927898 59.074806,48.014004 
	C85.531319,34.428719 112.932571,23.173407 142.461273,18.421167 
	C163.070007,15.104474 183.882492,13.345982 204.795807,15.933505 
	C215.756058,17.289574 226.763748,18.349771 237.657578,20.114229 
	C242.315948,20.868740 246.792496,22.942816 251.237198,24.705837 
	C252.665436,25.272362 254.427719,26.544733 254.839767,27.867250 
	C257.074921,35.041042 263.479523,37.537544 269.018463,40.919075 
	C274.663086,44.365158 280.586334,47.351219 286.314148,50.665565 
	C297.162231,56.942665 305.300812,66.047302 312.712402,76.396576 
z"/>
<path fill="#FFFFFF" opacity="1.000000" stroke="none" 
	d="
M94.751343,19.659599 
	C85.630722,23.974030 76.842186,28.088602 68.053658,32.203175 
	C67.833931,31.715040 67.614212,31.226904 67.394493,30.738768 
	C79.673058,21.418795 93.120903,14.684588 108.650856,12.554809 
	C108.869217,13.056164 109.087578,13.557518 109.305939,14.058873 
	C104.565102,15.859164 99.824265,17.659454 94.751343,19.659599 
z"/>
</svg>