<svg version="1.1" id="Layer_1" xmlns="http://www.w3.org/2000/svg" xmlns:xlink="http://www.w3.org/1999/xlink" x="0px" y="0px"
	 width="100%" viewBox="0 0 794 794" enable-background="new 0 0 794 794" xml:space="preserve">
<path fill="#FFFFFF" opacity="1.000000" stroke="none" 
	d="
M464.000000,795.000000 
	C309.333344,795.000000 155.166672,795.000000 1.000000,795.000000 
	C1.000000,530.333313 1.000000,265.666656 1.000000,1.000000 
	C265.666656,1.000000 530.333313,1.000000 795.000000,1.000000 
	C795.000000,265.666656 795.000000,530.333313 795.000000,795.000000 
	C684.833313,795.000000 574.666687,795.000000 464.000000,795.000000 
M156.765030,257.765167 
	C153.432266,266.042694 150.099518,274.320221 146.845871,282.401276 
	C138.590103,281.449432 138.159058,281.987701 140.763062,289.405762 
	C141.570618,291.706299 142.626373,293.921417 143.603943,296.160187 
	C145.154907,299.712067 147.663086,301.372345 151.752502,301.105774 
	C154.455383,300.929565 157.221451,301.722626 159.986847,303.000366 
	C160.317139,307.784607 160.658966,312.568115 160.975739,317.353241 
	C162.319992,337.658447 163.600403,357.968079 165.016739,378.268219 
	C165.914093,391.129883 166.973663,403.980713 168.042770,416.829559 
	C168.301163,419.935028 169.567429,421.907593 173.315140,422.090179 
	C180.568970,422.443634 187.783997,423.595978 195.037842,423.945374 
	C218.552689,425.078003 242.086792,425.827820 265.595306,427.068726 
	C277.639832,427.704468 289.676300,428.804352 301.661316,430.176025 
	C316.245056,431.845154 330.775360,433.987976 345.320374,435.986938 
	C362.651764,438.368835 380.034607,440.452789 397.285889,443.322540 
	C420.723358,447.221375 444.202698,451.078400 467.400513,456.157166 
	C499.838348,463.258850 532.044861,471.422089 564.327026,479.227539 
	C581.350830,483.343719 598.187256,488.409454 615.377625,491.591736 
	C624.552429,493.290161 627.765137,494.101044 630.649719,482.672180 
	C631.093994,480.912170 631.511047,479.138611 632.084412,477.419281 
	C633.239929,473.954376 634.873047,470.946960 639.214233,470.959625 
	C645.289917,470.977356 651.365784,471.018066 657.441284,470.991882 
	C664.700562,470.960571 667.553833,468.449097 667.961426,461.423889 
	C668.422363,453.480408 668.730530,445.526276 668.984131,437.572937 
	C669.375610,425.292603 669.703918,413.009918 669.986450,400.726562 
	C670.360840,384.450317 670.715576,368.173309 670.978210,351.894958 
	C671.104431,344.067108 670.890320,336.233673 671.023560,328.406036 
	C671.275024,313.624146 671.659058,298.844452 672.006348,284.064270 
	C672.069336,281.383728 671.974487,279.131287 668.280640,278.961060 
	C656.208435,278.404633 644.145508,277.646240 632.283081,276.267578 
	C636.566650,263.730042 641.018616,251.246323 645.054077,238.629410 
	C646.756042,233.308304 647.579590,227.706207 648.802429,222.231842 
	C648.389160,221.977402 647.975891,221.722946 647.562683,221.468506 
	C649.995117,220.758652 652.427612,220.048798 654.860046,219.338959 
	C655.064392,218.942917 655.268677,218.546875 655.473022,218.150833 
	C653.555054,217.108932 651.724182,215.841003 649.704529,215.063202 
	C639.473816,211.123245 629.207581,207.274200 618.929138,203.459946 
	C584.099548,190.535004 549.283020,177.574554 514.416870,164.748856 
	C481.227356,152.539932 447.981293,140.484741 414.761292,128.358551 
	C376.320526,114.326660 337.895538,100.251266 299.435089,86.273537 
	C279.592163,79.061989 259.685883,72.024765 239.810928,64.901299 
	C233.110336,62.499718 226.417999,60.075096 219.849503,57.707001 
	C211.548141,84.681442 203.480087,110.943153 195.381943,137.195572 
	C190.224396,153.915222 185.155136,170.663818 179.800537,187.320435 
	C174.999084,202.256332 169.861664,217.084229 164.217209,232.326797 
	C156.003113,234.292770 155.884186,234.294998 156.052826,243.302658 
	C156.139053,247.909027 156.739929,252.505783 156.765030,257.765167 
M67.979614,661.661377 
	C68.328278,664.275574 68.566177,666.910217 69.042656,669.500916 
	C74.068665,696.828369 87.260712,719.436218 109.242043,736.408020 
	C130.782196,753.039124 155.419403,763.524536 181.755310,769.873108 
	C199.270401,774.095337 217.115280,776.006287 235.140594,777.251892 
	C255.125168,778.632812 274.977722,778.424683 294.467865,774.452881 
	C314.504425,770.369690 333.128601,762.086853 350.356598,750.845215 
	C371.682434,736.929504 387.620270,718.660095 395.700165,694.275757 
	C400.204315,680.682739 401.520508,666.637878 400.068787,652.268372 
	C398.987610,641.566528 397.313110,630.930603 390.651642,622.397461 
	C380.183655,608.988281 368.920044,596.188049 357.743011,583.347778 
	C345.515045,569.300232 329.520874,561.101868 312.281952,554.964905 
	C281.487488,544.002380 249.433884,539.902832 217.061951,538.197144 
	C203.669876,537.491516 190.169098,538.471558 176.734085,539.058594 
	C161.598724,539.719849 148.028778,545.477539 135.719604,553.804932 
	C123.969421,561.754211 112.564590,570.283508 101.546684,579.221924 
	C93.829132,585.482910 86.626343,592.501770 79.903198,599.832825 
	C72.138298,608.299866 67.142593,618.408081 67.085114,630.208374 
	C67.035507,640.394043 67.565857,650.582458 67.979614,661.661377 
z"/>
<path fill="#FBE5BE" opacity="1.000000" stroke="none" 
	d="
M632.079102,276.965515 
	C644.145508,277.646240 656.208435,278.404633 668.280640,278.961060 
	C671.974487,279.131287 672.069336,281.383728 672.006348,284.064270 
	C671.659058,298.844452 671.275024,313.624146 671.023560,328.406036 
	C670.890320,336.233673 671.104431,344.067108 670.978210,351.894958 
	C670.715576,368.173309 670.360840,384.450317 669.986450,400.726562 
	C669.703918,413.009918 669.375610,425.292603 668.984131,437.572937 
	C668.730530,445.526276 668.422363,453.480408 667.961426,461.423889 
	C667.553833,468.449097 664.700562,470.960571 657.441284,470.991882 
	C651.365784,471.018066 645.289917,470.977356 639.214233,470.959625 
	C634.873047,470.946960 633.239929,473.954376 632.084412,477.419281 
	C631.511047,479.138611 631.093994,480.912170 630.649719,482.672180 
	C627.765137,494.101044 624.552429,493.290161 615.377625,491.591736 
	C598.187256,488.409454 581.350830,483.343719 564.327026,479.227539 
	C532.044861,471.422089 499.838348,463.258850 467.400513,456.157166 
	C444.202698,451.078400 420.723358,447.221375 397.285889,443.322540 
	C380.034607,440.452789 362.651764,438.368835 345.320374,435.986938 
	C330.775360,433.987976 316.245056,431.845154 301.661316,430.176025 
	C289.676300,428.804352 277.639832,427.704468 265.595306,427.068726 
	C242.086792,425.827820 218.552689,425.078003 195.037842,423.945374 
	C187.783997,423.595978 180.568970,422.443634 173.315140,422.090179 
	C169.567429,421.907593 168.301163,419.935028 168.042770,416.829559 
	C166.973663,403.980713 165.914093,391.129883 165.016739,378.268219 
	C163.600403,357.968079 162.319992,337.658447 160.975739,317.353241 
	C160.658966,312.568115 160.317139,307.784607 160.373947,302.460999 
	C169.588806,304.821075 178.514694,307.453979 187.228699,310.662323 
	C253.856247,335.193512 320.238037,360.409882 387.103943,384.270599 
	C444.410583,404.720184 502.248932,423.680969 559.874756,443.233368 
	C566.777649,445.575531 567.265076,445.547424 569.851135,438.980835 
	C585.021606,400.458588 600.057129,361.882599 614.969849,323.259705 
	C620.894958,307.914062 626.388855,292.401886 632.079102,276.965515 
z"/>
<path fill="#EF7961" opacity="1.000000" stroke="none" 
	d="
M632.181091,276.616547 
	C626.388855,292.401886 620.894958,307.914062 614.969849,323.259705 
	C600.057129,361.882599 585.021606,400.458588 569.851135,438.980835 
	C567.265076,445.547424 566.777649,445.575531 559.874756,443.233368 
	C502.248932,423.680969 444.410583,404.720184 387.103943,384.270599 
	C320.238037,360.409882 253.856247,335.193512 187.228699,310.662323 
	C178.514694,307.453979 169.588806,304.821075 160.360138,302.001678 
	C157.221451,301.722626 154.455383,300.929565 151.752502,301.105774 
	C147.663086,301.372345 145.154907,299.712067 143.603943,296.160187 
	C142.626373,293.921417 141.570618,291.706299 140.763062,289.405762 
	C138.159058,281.987701 138.590103,281.449432 146.845871,282.401276 
	C150.099518,274.320221 153.432266,266.042694 157.181274,257.169678 
	C158.414230,254.227600 159.341537,251.912781 160.025726,249.528183 
	C161.701080,243.689209 163.264191,237.818008 164.872467,231.959778 
	C169.861664,217.084229 174.999084,202.256332 179.800537,187.320435 
	C185.155136,170.663818 190.224396,153.915222 195.381943,137.195572 
	C203.480087,110.943153 211.548141,84.681442 219.849503,57.707001 
	C226.417999,60.075096 233.110336,62.499718 239.810928,64.901299 
	C259.685883,72.024765 279.592163,79.061989 299.435089,86.273537 
	C337.895538,100.251266 376.320526,114.326660 414.761292,128.358551 
	C447.981293,140.484741 481.227356,152.539932 514.416870,164.748856 
	C549.283020,177.574554 584.099548,190.535004 618.929138,203.459946 
	C629.207581,207.274200 639.473816,211.123245 649.704529,215.063202 
	C651.724182,215.841003 653.555054,217.108932 655.473022,218.150833 
	C655.268677,218.546875 655.064392,218.942917 654.860046,219.338959 
	C652.427612,220.048798 649.995117,220.758652 647.562683,221.468506 
	C647.975891,221.722946 648.389160,221.977402 648.802429,222.231842 
	C647.579590,227.706207 646.756042,233.308304 645.054077,238.629410 
	C641.018616,251.246323 636.566650,263.730042 632.181091,276.616547 
M391.188293,378.370209 
	C391.508942,378.360596 391.829620,378.350983 392.150269,378.341370 
	C391.753571,378.239471 391.356873,378.137604 390.645172,377.421814 
	C387.489990,375.941040 384.422607,374.223907 381.166565,373.014709 
	C325.134064,352.205780 269.086609,331.436951 213.007797,310.753235 
	C209.477615,309.451233 205.662796,308.920898 201.817749,307.577240 
	C201.465347,307.509735 201.112930,307.442261 200.760529,307.374756 
	C200.738892,307.489105 200.717239,307.603455 200.695587,307.717773 
	C201.143951,307.799591 201.592300,307.881378 202.397461,308.552032 
	C222.807724,316.981995 243.002945,325.987061 263.675018,333.716797 
	C301.468750,347.848724 339.526062,361.278046 377.528015,374.847534 
	C381.846008,376.389374 386.513885,376.951538 391.188293,378.370209 
M622.002563,275.188599 
	C627.878601,257.537872 633.754639,239.887146 640.007141,221.105667 
	C631.276062,217.547195 623.321472,213.834518 615.058228,211.032227 
	C596.009949,204.572510 576.716675,198.831863 557.692993,192.303513 
	C509.736328,175.846252 461.794617,159.338287 414.003082,142.409760 
	C385.186829,132.202591 356.588135,121.365585 328.032379,110.443779 
	C307.542572,102.606972 287.205719,94.352890 266.957306,85.909256 
	C256.275177,81.454788 245.928436,76.196030 235.043320,71.119949 
	C228.926010,88.013367 222.943420,104.613449 216.903351,121.192574 
	C210.913574,137.633636 204.783585,154.024033 198.864487,170.490356 
	C191.504761,190.964371 184.298279,211.493469 176.437027,232.420395 
	C171.524826,248.269302 166.700958,264.146545 161.632080,279.945190 
	C160.505844,283.455444 161.768127,284.553070 164.840652,285.639404 
	C213.276581,302.764557 261.937592,319.298431 310.007751,337.399872 
	C356.835876,355.033661 403.051727,374.293488 449.534424,392.844421 
	C484.281311,406.711731 519.032349,420.568787 553.755005,434.496490 
	C556.299072,435.516937 557.722107,434.979523 558.944641,432.579773 
	C563.698181,423.248932 569.325378,414.284882 573.250671,404.624908 
	C585.455872,374.588684 597.191467,344.357758 608.775085,314.074615 
	C613.573608,301.529785 617.524536,288.660767 622.002563,275.188599 
z"/>
<path fill="#A1CEFB" opacity="1.000000" stroke="none" 
	d="
M67.909714,661.215515 
	C67.565857,650.582458 67.035507,640.394043 67.085114,630.208374 
	C67.142593,618.408081 72.138298,608.299866 79.903198,599.832825 
	C86.626343,592.501770 93.829132,585.482910 101.546684,579.221924 
	C112.564590,570.283508 123.969421,561.754211 135.719604,553.804932 
	C148.028778,545.477539 161.598724,539.719849 176.734085,539.058594 
	C190.169098,538.471558 203.669876,537.491516 217.061951,538.197144 
	C249.433884,539.902832 281.487488,544.002380 312.281952,554.964905 
	C329.520874,561.101868 345.515045,569.300232 357.743011,583.347778 
	C368.920044,596.188049 380.183655,608.988281 390.651642,622.397461 
	C397.313110,630.930603 398.987610,641.566528 400.068787,652.268372 
	C401.520508,666.637878 400.204315,680.682739 395.700165,694.275757 
	C387.620270,718.660095 371.682434,736.929504 350.356598,750.845215 
	C333.128601,762.086853 314.504425,770.369690 294.467865,774.452881 
	C274.977722,778.424683 255.125168,778.632812 235.140594,777.251892 
	C217.115280,776.006287 199.270401,774.095337 181.755310,769.873108 
	C155.419403,763.524536 130.782196,753.039124 109.242043,736.408020 
	C87.260712,719.436218 74.068665,696.828369 69.042656,669.500916 
	C68.566177,666.910217 68.328278,664.275574 67.909714,661.215515 
M106.978149,711.510193 
	C121.552208,727.210571 138.213303,739.954346 157.782455,749.021851 
	C181.045990,759.801025 205.782761,763.573975 230.933182,764.850769 
	C251.625137,765.901367 272.509735,765.965698 292.768341,760.835999 
	C306.488068,757.362000 320.251465,753.300232 333.167999,747.619995 
	C347.192688,741.452515 358.963409,731.531250 368.377808,719.158020 
	C379.172760,704.970398 387.489624,689.548401 388.894562,671.511169 
	C390.799072,647.059631 382.934631,625.552185 365.535553,608.391113 
	C357.628387,600.592102 347.554291,595.012878 338.618164,588.222717 
	C335.116821,585.562195 330.474884,582.928406 329.100433,579.254395 
	C326.358307,571.924500 320.697083,569.264343 314.462708,567.022461 
	C291.686066,558.831848 267.877716,556.287659 243.932083,555.103455 
	C234.523743,554.638184 225.010941,555.267700 215.604141,556.077393 
	C206.428497,556.867065 197.106857,557.674866 188.240723,559.980164 
	C171.155106,564.422607 154.195694,569.483032 137.469559,575.132812 
	C124.438316,579.534485 111.270287,584.675232 102.599968,596.111877 
	C95.434906,605.562927 89.183952,615.756470 83.085770,625.954529 
	C75.259094,639.043274 75.427376,653.045349 79.925026,667.197388 
	C85.241875,683.927063 94.551064,698.267029 106.978149,711.510193 
M171.746765,548.008118 
	C160.437073,551.480896 148.876999,554.407288 139.830719,562.860474 
	C154.098694,557.975464 168.366669,553.090454 182.634659,548.205444 
	C182.561096,547.744812 182.487534,547.284241 182.413971,546.823608 
	C179.141678,547.206787 175.869370,547.589966 171.746765,548.008118 
z"/>
<path fill="#FBE4BD" opacity="1.000000" stroke="none" 
	d="
M164.544846,232.143280 
	C163.264191,237.818008 161.701080,243.689209 160.025726,249.528183 
	C159.341537,251.912781 158.414230,254.227600 157.352875,256.840515 
	C156.739929,252.505783 156.139053,247.909027 156.052826,243.302658 
	C155.884186,234.294998 156.003113,234.292770 164.544846,232.143280 
z"/>
<path fill="#FBE5BE" opacity="1.000000" stroke="none" 
	d="
M621.860962,275.939209 
	C617.524536,288.660767 613.573608,301.529785 608.775085,314.074615 
	C597.191467,344.357758 585.455872,374.588684 573.250671,404.624908 
	C569.325378,414.284882 563.698181,423.248932 558.944641,432.579773 
	C557.722107,434.979523 556.299072,435.516937 553.755005,434.496490 
	C519.032349,420.568787 484.281311,406.711731 449.534424,392.844421 
	C403.051727,374.293488 356.835876,355.033661 310.007751,337.399872 
	C261.937592,319.298431 213.276581,302.764557 164.840652,285.639404 
	C161.768127,284.553070 160.505844,283.455444 161.632080,279.945190 
	C166.700958,264.146545 171.524826,248.269302 177.190582,232.210281 
	C180.276855,232.000031 182.610031,232.030655 184.942154,231.994095 
	C192.302979,231.878693 194.743408,229.780304 196.006317,222.691406 
	C196.614349,219.278351 197.244431,215.860428 198.083542,212.499390 
	C199.335281,207.485535 204.289383,203.495102 208.465302,204.084412 
	C217.283142,205.328781 226.107727,206.544662 234.894592,207.985428 
	C257.371979,211.670959 279.869415,215.255402 302.285492,219.288055 
	C326.320801,223.611984 350.332611,228.110367 374.245605,233.059525 
	C405.939514,239.619080 437.520874,246.721344 469.163818,253.528915 
	C488.698242,257.731476 508.169830,262.311798 527.832703,265.804352 
	C543.737732,268.629456 559.857605,270.353271 575.935303,272.066620 
	C591.208008,273.694214 606.549622,274.674377 621.860962,275.939209 
z"/>
<path fill="#FFFFFF" opacity="1.000000" stroke="none" 
	d="
M621.931763,275.563904 
	C606.549622,274.674377 591.208008,273.694214 575.935303,272.066620 
	C559.857605,270.353271 543.737732,268.629456 527.832703,265.804352 
	C508.169830,262.311798 488.698242,257.731476 469.163818,253.528915 
	C437.520874,246.721344 405.939514,239.619080 374.245605,233.059525 
	C350.332611,228.110367 326.320801,223.611984 302.285492,219.288055 
	C279.869415,215.255402 257.371979,211.670959 234.894592,207.985428 
	C226.107727,206.544662 217.283142,205.328781 208.465302,204.084412 
	C204.289383,203.495102 199.335281,207.485535 198.083542,212.499390 
	C197.244431,215.860428 196.614349,219.278351 196.006317,222.691406 
	C194.743408,229.780304 192.302979,231.878693 184.942154,231.994095 
	C182.610031,232.030655 180.276855,232.000031 177.484879,231.999481 
	C184.298279,211.493469 191.504761,190.964371 198.864487,170.490356 
	C204.783585,154.024033 210.913574,137.633636 216.903351,121.192574 
	C222.943420,104.613449 228.926010,88.013367 235.043320,71.119949 
	C245.928436,76.196030 256.275177,81.454788 266.957306,85.909256 
	C287.205719,94.352890 307.542572,102.606972 328.032379,110.443779 
	C356.588135,121.365585 385.186829,132.202591 414.003082,142.409760 
	C461.794617,159.338287 509.736328,175.846252 557.692993,192.303513 
	C576.716675,198.831863 596.009949,204.572510 615.058228,211.032227 
	C623.321472,213.834518 631.276062,217.547195 640.007141,221.105667 
	C633.754639,239.887146 627.878601,257.537872 621.931763,275.563904 
z"/>
<path fill="#FADFB9" opacity="1.000000" stroke="none" 
	d="
M201.980392,308.031555 
	C205.662796,308.920898 209.477615,309.451233 213.007797,310.753235 
	C269.086609,331.436951 325.134064,352.205780 381.166565,373.014709 
	C384.422607,374.223907 387.489990,375.941040 390.819000,377.713074 
	C390.992828,378.004364 391.019501,377.967987 391.019501,377.967987 
	C386.513885,376.951538 381.846008,376.389374 377.528015,374.847534 
	C339.526062,361.278046 301.468750,347.848724 263.675018,333.716797 
	C243.002945,325.987061 222.807724,316.981995 202.202606,308.273529 
	C202.007767,307.995026 201.980392,308.031555 201.980392,308.031555 
z"/>
<path fill="#FADFB9" opacity="1.000000" stroke="none" 
	d="
M202.024200,307.979126 
	C201.592300,307.881378 201.143951,307.799591 200.695587,307.717773 
	C200.717239,307.603455 200.738892,307.489105 200.760529,307.374756 
	C201.112930,307.442261 201.465347,307.509735 201.899078,307.804382 
	C201.980392,308.031555 202.007767,307.995026 202.024200,307.979126 
z"/>
<path fill="#FADFB9" opacity="1.000000" stroke="none" 
	d="
M390.976501,378.020020 
	C391.356873,378.137604 391.753571,378.239471 392.150269,378.341370 
	C391.829620,378.350983 391.508942,378.360596 391.103882,378.169098 
	C391.019501,377.967987 390.992828,378.004364 390.976501,378.020020 
z"/>
<path fill="#FFFFFF" opacity="1.000000" stroke="none" 
	d="
M106.725784,711.259583 
	C94.551064,698.267029 85.241875,683.927063 79.925026,667.197388 
	C75.427376,653.045349 75.259094,639.043274 83.085770,625.954529 
	C89.183952,615.756470 95.434906,605.562927 102.599968,596.111877 
	C111.270287,584.675232 124.438316,579.534485 137.469559,575.132812 
	C154.195694,569.483032 171.155106,564.422607 188.240723,559.980164 
	C197.106857,557.674866 206.428497,556.867065 215.604141,556.077393 
	C225.010941,555.267700 234.523743,554.638184 243.932083,555.103455 
	C267.877716,556.287659 291.686066,558.831848 314.462708,567.022461 
	C320.697083,569.264343 326.358307,571.924500 329.100433,579.254395 
	C330.474884,582.928406 335.116821,585.562195 338.618164,588.222717 
	C347.554291,595.012878 357.628387,600.592102 365.535553,608.391113 
	C382.934631,625.552185 390.799072,647.059631 388.894562,671.511169 
	C387.489624,689.548401 379.172760,704.970398 368.377808,719.158020 
	C358.963409,731.531250 347.192688,741.452515 333.167999,747.619995 
	C320.251465,753.300232 306.488068,757.362000 292.768341,760.835999 
	C272.509735,765.965698 251.625137,765.901367 230.933182,764.850769 
	C205.782761,763.573975 181.045990,759.801025 157.782455,749.021851 
	C138.213303,739.954346 121.552208,727.210571 106.725784,711.259583 
z"/>
<path fill="#FFFFFF" opacity="1.000000" stroke="none" 
	d="
M172.171921,547.990601 
	C175.869370,547.589966 179.141678,547.206787 182.413971,546.823608 
	C182.487534,547.284241 182.561096,547.744812 182.634659,548.205444 
	C168.366669,553.090454 154.098694,557.975464 139.830719,562.860474 
	C148.876999,554.407288 160.437073,551.480896 172.171921,547.990601 
z"/>
</svg>